<?xml version="1.0" encoding="utf-8"?>
<!-- Generator: Adobe Illustrator 24.0.1, SVG Export Plug-In . SVG Version: 6.00 Build 0)  -->
<svg version="1.1" id="Layer_1" xmlns="http://www.w3.org/2000/svg" xmlns:xlink="http://www.w3.org/1999/xlink" x="0px" y="0px"
	 viewBox="0 0 161.2 169.3" style="enable-background:new 0 0 161.2 169.3;" xml:space="preserve">
<style type="text/css">
	.st0{fill:#0018A8;}
	.st1{fill:none;}
</style>
<g>
	<path class="st0" d="M59.7,81.5c-4.7-0.5-9.3-0.8-13.7-0.9c1.2-1.9,2.3-3.4,1.7-7.9c3-2.7,4.5-3,8.9,1c0.5,2.7,2.2,5.1,4.8,6.9
		C60.6,80.7,60,81.1,59.7,81.5 M64,48.4c-0.5-0.2-1.1-0.3-1.6-0.4c-0.2-1.9-0.5-4.8,0.1-5.7c0.6-0.8,1.4,0,1.6,1.2
		C64.1,43.4,64,46.1,64,48.4 M37.9,80.5c-2,0.1-3.9,0.2-5.7,0.3c1.5-2.3,5.2-6.4,7.9-9.6C44.5,73.7,39.2,77.3,37.9,80.5
		 M161.2,141.3c-6.7-4.4-9.1-7.6-12.9-10.4c-3.8-2.8-7.7-5.1-10.8-7.9c-5.9-5.2-11.3-19.9-23.2-28.4c-4.9-3.5-18.5-7.4-34.1-10.3
		c-0.1-0.9-0.7-1.8-0.7-1.8s4.1,0.7,5.9-3.2c2.3-5.2-2.7-4.9-2.7-4.9s4-18.9-16.9-25.7c-0.2-0.9-0.3-2.6-0.1-5.3
		c0.2-1.1,1.6-1.7,2-3.1c1.1-1.6,3.3-2.2,5.9-4.5c2.6-2.3,4.1-5.2,4.6-6.6c0.9-2.9,0.9-6,0.1-8.5c-0.3-1.2-0.5-4-0.4-7.2
		c0,0-0.1-2.7,0.1-3.8c1.3,1.3,2.9-0.6,2.2-4.4c0.4,0,1.6,0.2,2.9,0h0.6C83.2,5.1,83.1,5,83,4.9c0-0.4-1.7-1.1-2.3-1.4
		c1.4-1.2,0.3-2.8-0.9-1.6c0.9-1.4-0.8-2-1.4-0.7c0-1.7-1.4-1.7-1.4,0.1c-0.8-1.4-3.2-0.5-0.7,1.2c-0.1,0-0.7,0.2-1.8,1.1
		c-2,1.7-4.8,7.2-5,7.4c0,0-3,7.4-4.3,8.7c-0.3,0.3-5.9,1.3-7.6-0.9c-1.1-1.4-3-12.1-7.4-15.7c-2.3-1.4-3.7-1-2.3,1.8
		c1.3,2.8-3.5-0.3-0.8,4.6c2.3,4.3-2.6,2.1,0.3,6.6c1.8,2.8-2,2.1,1.1,5.9c2.2,2.8,3.1,14,10.4,17.7c0.6,1.6,0.9,2.2,1.5,3.2
		c0.3,0.7,0.4,2.9,0.4,4.6c-1.4-0.3-2.8-0.5-4.3-0.7c-20.7-2.3-18.1-4.3-21.7-10.4c15.3-13.7,9.8-16.8-0.2-8.5
		c0.9-13.5-4-19.6-7.8,4.8c-2,0-7.8,0.5-12.9,9.5c-1.1,1.9-1.2,3.1-0.3,4.5c1.5,2.3,3,3.3,5.2,4.1c8.8,3,5.8,6.4,12.5,12.8
		c4,3.8,0.6,13-3,14.5c-2.8,1.1-4.5,2.3-4.8,4.1c-1.1,0.3-2.1,0.7-3,1.1c-8.4,3.8-10.7,6.2-10.7,6.2s0-5.1-4.9-5.1
		c-5.5,0-6.6,7.5-0.9,9.1c-1.1-6.5,5.9-4.4,3,1.1c-1.6,3.6-2.8,5-3.2,10.1c-0.8,10.4,6,23,7.6,26.8c1.3,3.3-3.1,4.2-1.3,9.3
		c3.3,9.4,3.8,15.2,4.7,19.7c0.6,3.2,4.2,6.9,4.2,6.9h5.4c-3.3-5.7-6.2-9.8-4.7-21c1.2,4,6.6,15.3,8.4,18.4c2.6,0,3.6-0.1,6.1-0.1
		c-0.7-2.6-4.7-9.8-7.6-17.5c-2.9-9.2,2.8-17,4.4-19.5c1.6-2.5,5.9-1.2,11.9,0.1c6,1.3,38.5,3.1,37.6,7.8c0.3,6.2-0.8,17.4-1.3,23
		c-0.2,5.1,5,9.1,5,9.1h6c0,0-4.3-6-3.7-14.2c0.6-8.2,5.7-15.8,9.1-15.8c3.5,0,5.7,6,8.5,11.6c5.2,10.7,10.6,15.7,16,19.8h7.7
		c-7.4-7.6-12.5-15.1-12-20.5c8.3,12.5,17.9,17.4,27,20.5c4.2-2.9,5.4-3.9,5.4-3.9s-5.2-4.1-6.4-12.5c0.2-6.9-0.7-14.7-0.7-14.7
		s3.6,5,8.3,6.1C153.5,145.1,156.9,143.1,161.2,141.3"/>
</g>
<rect x="-158.9" y="-70.8" class="st1" width="565.9" height="565.9"/>
<rect x="-159.4" y="-71.3" class="st1" width="566.9" height="566.9"/>
</svg>
