<?xml version="1.0" encoding="utf-8"?>
<!-- Generator: Adobe Illustrator 25.4.1, SVG Export Plug-In . SVG Version: 6.00 Build 0)  -->
<svg version="1.1" id="Layer_1" xmlns="http://www.w3.org/2000/svg" xmlns:xlink="http://www.w3.org/1999/xlink" x="0px" y="0px"
	 viewBox="0 0 498 578.1" style="enable-background:new 0 0 498 578.1;" xml:space="preserve">
<style type="text/css">
	.st0{opacity:0.58;enable-background:new    ;}
	.st1{opacity:0.58;fill:#A4CE39;enable-background:new    ;}
	.st2{fill:#A4CE39;}
	.st3{fill:#FFFFFF;}
	.st4{clip-path:url(#SVGID_00000166662553788762168240000010758875950105154490_);}
	.st5{fill:#EFF2C2;}
	.st6{fill:#3BB24C;}
	.st7{fill:#326F37;}
	.st8{fill:#4BA958;}
	.st9{fill:#446731;}
</style>
<g id="Layer_1_1_">
	<g class="st0">
		<path class="st1" d="M249,574.8c-7.2,0-13.6-3.4-17.7-9.3c-25.9-37.6-47.7-68.7-67-96.1C77.6,345.8,59.5,320.1,59.5,257.3
			c0-104.5,85-189.5,189.5-189.5s189.5,85,189.5,189.5c0,62.8-18.1,88.5-104.8,212.2c-19.2,27.4-41.1,58.5-67,96.1
			C262.6,571.4,256.2,574.8,249,574.8z"/>
		<path class="st2" d="M249,70.3c25.2,0,49.7,4.9,72.8,14.7c22.3,9.4,42.3,22.9,59.4,40.1c17.2,17.2,30.7,37.2,40.1,59.4
			C431,207.6,436,232,436,257.3c0,32.6-5.1,54-19.4,81.8c-15.3,29.6-41.5,67-85,128.9c-19.2,27.4-41.1,58.5-67,96.1
			c-3.6,5.2-9.3,8.2-15.6,8.2s-12-3-15.6-8.2c-25.9-37.6-47.7-68.7-67-96.1c-43.4-61.9-69.7-99.3-85-128.9
			C67.1,311.3,62,289.9,62,257.3c0-25.2,4.9-49.7,14.7-72.8c9.4-22.3,22.9-42.3,40.1-59.4C134,107.9,154,94.4,176.2,85
			C199.3,75.2,223.8,70.3,249,70.3 M249,65.3c-106,0-192,86-192,192c0,77.4,27,99,172.3,309.7c4.8,6.9,12.2,10.3,19.7,10.3
			s15-3.4,19.7-10.3C414,356.3,441,334.7,441,257.3C441,151.2,355,65.3,249,65.3L249,65.3z"/>
	</g>
</g>
<g id="Layer_2_1_">
	<path class="st3" d="M410.3,257.3c0,89.1-72.2,161.3-161.3,161.3S87.7,346.3,87.7,257.3S159.9,96,249,96S410.3,168.2,410.3,257.3z"
		/>
</g>
<g id="Layer_5">
</g>
<g id="Layer_2_copy">
	<g>
		<g>
			<g>
				<defs>
					<circle id="SVGID_1_" cx="249" cy="257.3" r="154"/>
				</defs>
				<clipPath id="SVGID_00000000935986643101675720000012955309756788443580_">
					<use xlink:href="#SVGID_1_"  style="overflow:visible;"/>
				</clipPath>
				<g style="clip-path:url(#SVGID_00000000935986643101675720000012955309756788443580_);">
					<path class="st5" d="M234.3,128.5c0.8-0.2,1.6-0.7,2.4-0.7c9.1-0.1,18.3-0.1,27.4,0c4.2,0,7.3,1.8,9.6,5.6
						c6.4,10.5,13.2,20.8,19.8,31.2c9.1,14.2,18.2,28.5,27.4,42.7c6.1,9.4,12.4,18.7,18.4,28.2c7.8,12.3,15.4,24.8,23.1,37.1
						c4.1,6.6,8.5,13,12.7,19.5c2.1,3.3,4.2,6.6,6.3,9.9c1.8,2.8,1.9,5.6,0.5,8.5c-1.8,0.6-3.5,1.1-5.3,1.7c-1.4,0-2.8-0.1-4.2-0.1
						c-54.5,0-108.9,0-163.4,0c-1.3,0-2.5,0.1-3.8,0.1c-4.1-0.1-8.1-0.1-12.2-0.2c-0.5-0.2-1-0.5-1.5-0.7c-3.5-2.6-5.1-6.4-3.3-9.7
						c3.3-6,7.2-11.8,10.8-17.7c30.6,0,61.1,0,91.7,0c1.3,0,2.5-1,3.8-1.5c1.2,0.5,2.4,1.5,3.7,1.5c6.8,0.2,13.7,0.2,20.5,0.1
						c4.2-0.1,8.2-2.9,8.3-6.8c0.1-2.5-1.2-5.4-2.6-7.6c-18.3-29.4-36.7-58.7-55.2-88.1c-6.7-10.6-13.5-21.1-20.2-31.7
						c-0.3-0.5-0.6-1-0.9-1.5l0,0c-1.8-2.8-3.6-5.6-5.4-8.4l0,0c-1.8-2.8-3.5-5.6-5.3-8.4l0,0c-0.3-0.3-0.6-0.5-0.8-0.8c0,0,0,0,0,0
						c-0.3-0.3-0.5-0.5-0.8-0.8l0,0C235.4,129.5,234.8,129,234.3,128.5z"/>
					<path class="st6" d="M249,149.8c6.7,10.6,13.5,21.1,20.2,31.7c18.4,29.3,36.9,58.7,55.2,88.1c1.4,2.3,2.7,5.1,2.6,7.6
						c-0.1,3.8-4.1,6.7-8.3,6.8c-6.8,0.1-13.7,0.1-20.5-0.1c-1.2,0-2.4-1-3.7-1.5c-0.2-0.5-0.3-1-0.5-1.4
						c-7.1-11.4-14.1-22.8-21.2-34.2c-8.7-14-17.5-28-26.3-42.1c-2.9-4.9-5.8-9.8-8.9-14.6c-4.7-7.3-10.9-7.1-15.3,0.3
						c-13.9,23.1-27.9,46.1-41.9,69.2c-9.9,16.3-19.8,32.7-29.8,49c-5.3,8.6-10.7,17.2-16,25.7c-0.5,0.1-1,0-1.5,0.3
						c-4.5,2.4-6.2,1.7-7.8-3.2c-0.4-1.3-0.8-2.6-1.5-3.8c-2.2-3.9-5.1-7.6-6.8-11.7c-2.6-6,3.6-9.4,5.1-14.3
						c0.6-2.2,1.6-4.2,2.4-6.4c0,0,0,0,0,0c3-0.3,3.3-2.3,3-4.7c-0.1-0.2,0-0.4,0.2-0.5c0.2-0.3,0.4-0.6,0.6-0.9c0,0,0,0,0,0
						c1.2,0.1,2.4,0.1,3.8,0.2c-0.5-3.5,0-6.4,3.8-7.5c0.5-0.2,1.1-0.8,1.2-1.4c0.9-3.2,1.7-6.4,2.6-9.7c0,0,0,0,0,0
						c3.1-0.6,3.8-2.5,3.1-5.3c0,0,0,0,0,0c4.5-1.3,8.1-7.1,7.7-12.2c0,0,0,0,0,0c5-2.6,6.6-7.2,7.6-12.3c0,0,0,0,0,0
						c0.6-0.1,1.6,0.1,1.8-0.3c3.1-5.1,6.2-10.2,9.3-15.3c0.8-1.3,1.6-2.5,2.5-3.7c2.4-2.9,4.9-5.8,4.2-10c0,0,0.1-0.2,0.1-0.2
						c1.6-1.7,3.2-3.3,4.7-5c1.1-1.2,2.2-2.4,3.3-3.7c0.3,0.3,0.5,0.5,0.8,0.8c0.1,0.1,0.2,0.1,0.3,0.2c-0.1-0.1-0.2-0.1-0.3-0.2
						c-0.3-0.3-0.5-0.5-0.8-0.8c0.2-1.8,0.5-3.6,0.7-5.4c0,0,0,0,0,0c3.5-0.6,4.2-3.1,3.8-6.1c0,0,0,0,0,0c1.2-0.1,2.5-0.3,4.3-0.5
						c-0.1-1.3-0.3-3.5-0.5-5.6c0,0,0,0,0,0c1.2-0.5,3.1-0.6,3.4-1.5c1.4-3.2,2.3-6.6,3.4-10c0,0,0,0,0,0c0.3-0.5,0.6-1,0.8-1.5
						c0,0,0,0,0,0c2.2,0.9,3-0.4,3.8-2.2c1.2-2.6,2.1-5.7,4.2-7.3c2.8-2.2,2.6-4.6,2.7-7.4c0,0,0,0.1,0,0.1c0.3-0.5,0.5-1.1,0.8-1.6
						c0,0,0,0,0,0c0.5-0.8,1.1-1.5,1.6-2.3c0,0,0,0,0,0c0.7-0.4,1.7-0.6,2.1-1.2c1.5-2.2,2.7-4.6,4.2-6.8c2.7-4.1,5.3-8.2,8.2-12.1
						c0.7-0.9,2.1-1.6,3.3-1.8c1.7-0.3,3.5-0.1,5.2-0.1c0,0,0,0,0,0c0.3,0.3,0.5,0.5,0.8,0.8c0,0,0,0,0,0c0.3,0.3,0.6,0.5,0.8,0.8
						c0,0,0,0,0,0c1.1,3.2,0.8,7.4,5.3,8.4c0,0,0,0,0,0c0.3,3.8,1.9,6.7,5.4,8.4c0,0,0,0,0,0C248.4,148.8,248.7,149.3,249,149.8z"/>
					<path class="st7" d="M134.6,334.4c5.4-8.6,10.8-17.1,16-25.7c10-16.3,19.9-32.7,29.8-49c14-23,28-46.1,41.9-69.2
						c4.5-7.4,10.6-7.6,15.3-0.3c3.1,4.8,5.9,9.7,8.9,14.6c-0.4,0.5-0.8,1-1.1,1.5c-12.1,20-24.1,40-36.1,60
						c-3.5,5.8-6.7,11.8-10.1,17.7c-3.6,5.9-7.5,11.6-10.8,17.7c-1.8,3.3-0.1,7.2,3.3,9.7c0.5,0.2,1,0.5,1.5,0.7
						c4.1,0.1,8.1,0.1,12.2,0.2c1.3,0.2,2.7,0.6,4,0.6c54.5,0,108.9,0,163.4,0c1.3,0,2.7-0.4,4-0.6c1.8-0.6,3.5-1.1,5.3-1.7
						c-3.2,8.3-6,16.8-9.7,24.9c-0.8,1.8-4.6,2.3-7.1,3.2c-0.7,0.3-1.5,0-2.3,0c-76.3,0-152.6,0-228.9,0c-0.9,0-1.8-0.1-2.7-0.1
						C132.5,337.2,133.6,335.8,134.6,334.4z"/>
					<path class="st8" d="M134.6,334.4c-1.1,1.4-2.2,2.9-3.2,4.3c-4.3,0.1-6-3.2-7.7-6.2c-2.8-5-5.8-10-8-15.2c-0.9-2.2-1-5.6,0-7.7
						c2.4-5,5.8-9.5,8.8-14.2c-0.8,2.1-1.7,4.2-2.4,6.4c-1.5,4.9-7.7,8.3-5.1,14.3c1.8,4.1,4.6,7.7,6.8,11.7c0.7,1.2,1,2.5,1.5,3.8
						c1.7,4.9,3.4,5.6,7.8,3.2C133.6,334.4,134.2,334.4,134.6,334.4z"/>
					<path class="st8" d="M175.8,212c0.6,4.2-1.9,7-4.2,10c-0.9,1.2-1.8,2.4-2.5,3.7c-3.1,5.1-6.1,10.2-9.3,15.3
						c-0.2,0.3-1.2,0.2-1.8,0.3c3.9-6.5,7.7-13,11.6-19.5C171.6,218.4,173.7,215.2,175.8,212z"/>
					<path class="st8" d="M235.9,130c-1.7,0-3.5-0.2-5.2,0.1c-1.2,0.2-2.6,0.9-3.3,1.8c-2.9,3.9-5.5,8-8.2,12.1
						c-1.4,2.2-2.7,4.6-4.2,6.8c-0.4,0.6-1.4,0.8-2.1,1.2c4.3-7.2,8.4-14.5,13-21.4c1.1-1.6,4.1-2,6.2-2.9c0.2,0.1,0.5,0.3,0.7,0.4
						c0.5,0.1,1,0.2,1.6,0.2C234.8,129,235.4,129.5,235.9,130z"/>
					<path class="st8" d="M139.7,270.9c-0.8,3.2-1.6,6.5-2.6,9.7c-0.2,0.5-0.7,1.2-1.2,1.4c-3.8,1.1-4.3,4-3.8,7.5
						c-1.4-0.1-2.6-0.1-3.8-0.2C132.1,283.1,135.9,277,139.7,270.9z"/>
					<path class="st8" d="M210.6,155.9c0,2.8,0.2,5.2-2.7,7.4c-2.1,1.6-3,4.7-4.2,7.3c-0.8,1.8-1.6,3.1-3.8,2.2
						C203.5,167.1,207,161.5,210.6,155.9z"/>
					<path class="st8" d="M184.7,197.8c-0.2,1.8-0.5,3.6-0.7,5.4c0,0,0,0,0,0c-1.1,1.2-2.2,2.5-3.3,3.7c-1.6,1.7-3.1,3.3-4.7,5
						C178.9,207.1,181.8,202.5,184.7,197.8z"/>
					<path class="st8" d="M150.4,253.4c0.5,5-3.2,10.9-7.7,12.2C145.3,261.6,147.9,257.5,150.4,253.4z"/>
					<path class="st8" d="M199.2,174.2c-1.1,3.3-2,6.8-3.4,10c-0.4,0.8-2.3,1-3.4,1.5C194.6,181.8,196.9,178,199.2,174.2z"/>
					<path class="st8" d="M158,241.2c-1,5-2.6,9.7-7.6,12.3C152.9,249.4,155.5,245.3,158,241.2z"/>
					<path class="st8" d="M192.3,185.6c0.2,2.2,0.4,4.4,0.5,5.6c-1.9,0.2-3.1,0.4-4.3,0.5C189.8,189.7,191,187.6,192.3,185.6z"/>
					<path class="st8" d="M188.5,191.7c0.3,3.1-0.3,5.5-3.8,6.1C185.9,195.8,187.2,193.7,188.5,191.7z"/>
					<path class="st8" d="M142.8,265.6c0.8,2.8,0.1,4.8-3.1,5.3C140.7,269.2,141.8,267.4,142.8,265.6z"/>
					<path class="st8" d="M127.5,290.6c0.3,2.4-0.1,4.4-3,4.7C125.5,293.7,126.5,292.2,127.5,290.6z"/>
					<path class="st8" d="M212.9,152.1c-0.5,0.8-1.1,1.5-1.6,2.3C211.8,153.6,212.4,152.9,212.9,152.1z"/>
					<path class="st8" d="M211.3,154.3c-0.3,0.5-0.5,1.1-0.8,1.6C210.8,155.4,211.1,154.9,211.3,154.3z"/>
					<path class="st8" d="M200,172.7c-0.3,0.5-0.6,1-0.8,1.5C199.4,173.7,199.7,173.2,200,172.7z"/>
					<path class="st5" d="M232.8,128.2c-0.2-0.1-0.5-0.3-0.7-0.4C232.3,128,232.5,128.1,232.8,128.2z"/>
					<path class="st8" d="M128.3,289.2c-0.2,0.3-0.4,0.6-0.6,0.9C127.9,289.8,128.1,289.5,128.3,289.2z"/>
					<path class="st9" d="M376.8,312.3c-1.3,0.2-2.7,0.6-4,0.6c-54.5,0-108.9,0-163.4,0c-1.3,0-2.7-0.4-4-0.6c1.3,0,2.5-0.1,3.8-0.1
						c54.5,0,108.9,0,163.4,0C374,312.2,375.4,312.2,376.8,312.3z"/>
					<path class="st8" d="M242.8,139.9c-4.5-1.1-4.2-5.2-5.3-8.4C239.2,134.3,241,137.1,242.8,139.9z"/>
					<path class="st8" d="M248.1,148.3c-3.5-1.7-5.1-4.6-5.4-8.4C244.5,142.7,246.3,145.5,248.1,148.3z"/>
					<path class="st9" d="M193.2,312.1c-0.5-0.2-1-0.5-1.5-0.7C192.2,311.6,192.7,311.8,193.2,312.1z"/>
					<path class="st8" d="M249,149.8c-0.3-0.5-0.6-1-0.9-1.5C248.4,148.8,248.7,149.3,249,149.8z"/>
					<path class="st8" d="M236.7,130.8c-0.3-0.3-0.5-0.5-0.8-0.8C236.1,130.3,236.4,130.5,236.7,130.8z"/>
					<path class="st8" d="M237.5,131.5c-0.3-0.3-0.6-0.5-0.8-0.8C236.9,131,237.2,131.3,237.5,131.5z"/>
					<path class="st8" d="M184.8,204c-0.3-0.3-0.5-0.5-0.8-0.8c0,0,0,0,0,0C184.3,203.5,184.5,203.7,184.8,204L184.8,204z"/>
					<path class="st8" d="M184.8,204c0.1,0.1,0.2,0.1,0.3,0.2C185,204.1,184.9,204,184.8,204C184.8,204,184.8,204,184.8,204z"/>
				</g>
			</g>
		</g>
	</g>
</g>
</svg>
