<?xml version="1.0" encoding="utf-8"?>
<!-- Generator: Adobe Illustrator 25.4.1, SVG Export Plug-In . SVG Version: 6.00 Build 0)  -->
<svg version="1.1" id="Layer_1" xmlns="http://www.w3.org/2000/svg" xmlns:xlink="http://www.w3.org/1999/xlink" x="0px" y="0px"
	 viewBox="0 0 47.84 64" style="enable-background:new 0 0 47.84 64;" xml:space="preserve">
<style type="text/css">
	.st0{enable-background:new    ;}
	.st1{opacity:0.83;fill:#881640;enable-background:new    ;}
	.st2{fill:#881640;}
	.st3{clip-path:url(#SVGID_00000168099357252881854950000017960264018948387769_);fill:#FFFFFF;}
	.st4{clip-path:url(#SVGID_00000168099357252881854950000017960264018948387769_);}
	.st5{fill:#FFFFFF;}
	.st6{fill:none;stroke:#FFFFFF;stroke-miterlimit:10;}
</style>
<g id="Layer_1_00000059311874486290776650000001262023570775298436_">
	<g class="st0">
		<path class="st1" d="M23.92,62.5c-0.42,0-0.76-0.18-1-0.53c-3.39-4.92-6.18-8.9-8.46-12.14C3.72,34.53,1.5,31.36,1.5,23.92
			C1.5,11.56,11.56,1.5,23.92,1.5s22.42,10.06,22.42,22.42c0,7.44-2.22,10.61-12.9,25.84L32.3,51.4c-2.16,3.08-4.58,6.53-7.38,10.59
			C24.69,62.31,24.33,62.5,23.92,62.5z"/>
		<g>
			<path class="st2" d="M23.92,3c11.54,0,20.92,9.39,20.92,20.92c0,6.97-1.93,9.71-12.62,24.97l-0.06,0.09l-1.18,1.68
				c-2.07,2.95-4.41,6.28-7.05,10.12c-3.31-4.8-6.02-8.66-8.24-11.82l-0.05-0.08C4.93,33.64,3,30.89,3,23.92
				C3,12.39,12.39,3,23.92,3 M23.92,0C10.73,0,0,10.73,0,23.92c0,7.93,2.28,11.17,13.23,26.77c2.44,3.46,5.19,7.38,8.46,12.13
				C22.2,63.57,23.01,64,23.92,64s1.72-0.43,2.23-1.16c3.27-4.75,6.03-8.67,8.46-12.13C45.55,35.1,47.84,31.85,47.84,23.92
				C47.84,10.73,37.11,0,23.92,0L23.92,0z"/>
		</g>
	</g>
</g>
<g id="kip">
</g>
<g id="circle">
	<g>
		<g>
			<defs>
				<circle id="SVGID_1_" cx="23.92" cy="23.92" r="17.94"/>
			</defs>
			<clipPath id="SVGID_00000166649325133427720740000014301853011396260528_">
				<use xlink:href="#SVGID_1_"  style="overflow:visible;"/>
			</clipPath>
			
				<circle style="clip-path:url(#SVGID_00000166649325133427720740000014301853011396260528_);fill:#FFFFFF;" cx="16.85" cy="36.63" r="4.37"/>
			<g style="clip-path:url(#SVGID_00000166649325133427720740000014301853011396260528_);">
				<path class="st5" d="M37.01,44.52H35.2V41.9h1.75L37.01,44.52z M34.32,44.52h-1.75V41.9h1.75V44.52z M31.69,44.52h-1.75V41.9
					h1.75V44.52z M29.06,44.52h-1.75V41.9h1.75V44.52z M26.43,44.52h-1.75V41.9h1.75V44.52z M23.81,44.52h-1.75V41.9h1.75V44.52z
					 M21.18,44.52h-1.75V41.9h1.75V44.52z M18.55,44.52h-1.7L16.8,41.9h1.75V44.52z M15.74,44.44c-0.69-0.1-1.37-0.29-2.02-0.57
					l1.04-2.41c0.43,0.19,0.88,0.31,1.35,0.38L15.74,44.44z M38.07,44.44l-0.37-2.6c0.46-0.07,0.91-0.19,1.34-0.38l1.04,2.41
					C39.44,44.15,38.76,44.34,38.07,44.44z M12.79,43.39c-0.6-0.36-1.15-0.8-1.64-1.31l1.89-1.81c0.33,0.34,0.69,0.63,1.09,0.87
					L12.79,43.39z M41.02,43.39l-1.36-2.24c0.4-0.24,0.77-0.54,1.09-0.88l1.9,1.81C42.17,42.59,41.62,43.03,41.02,43.39z
					 M10.48,41.28c-0.41-0.57-0.75-1.19-1-1.84l2.45-0.93c0.17,0.44,0.39,0.85,0.67,1.23L10.48,41.28z M43.33,41.28l-2.12-1.54
					c0.28-0.38,0.5-0.79,0.67-1.23l2.45,0.93C44.08,40.09,43.74,40.71,43.33,41.28z M9.17,38.44c-0.14-0.59-0.21-1.2-0.21-1.81
					c0-0.09,0-0.18,0-0.27l2.62,0.09l0,0.19c0,0.41,0.05,0.81,0.14,1.21L9.17,38.44z M44.63,38.43l-2.55-0.59
					c0.09-0.39,0.14-0.8,0.14-1.2l0-0.2l2.62-0.09c0,0.09,0.01,0.19,0.01,0.28C44.84,37.23,44.77,37.84,44.63,38.43z M11.65,35.75
					l-2.58-0.44c0.12-0.69,0.33-1.37,0.62-2l2.38,1.11C11.87,34.83,11.73,35.28,11.65,35.75z M42.14,35.74
					c-0.08-0.46-0.22-0.91-0.42-1.33l2.38-1.11c0.3,0.63,0.51,1.31,0.62,2L42.14,35.74z M12.41,33.8l-2.21-1.41
					c0.38-0.59,0.83-1.13,1.35-1.6l1.76,1.94C12.96,33.04,12.66,33.4,12.41,33.8z M41.39,33.79c-0.25-0.39-0.56-0.75-0.9-1.07
					l1.76-1.94c0.52,0.47,0.97,1.01,1.35,1.6L41.39,33.79z M13.86,32.29l-1.49-2.16c0.58-0.4,1.21-0.72,1.87-0.95l0.87,2.47
					C14.66,31.81,14.24,32.02,13.86,32.29z M39.94,32.29c-0.39-0.27-0.81-0.48-1.25-0.63l0.87-2.47c0.66,0.23,1.29,0.55,1.87,0.95
					L39.94,32.29z M15.78,31.47l-0.53-2.57c0.53-0.11,1.07-0.17,1.6-0.16h0.4v2.62h-0.41c0,0,0,0,0,0
					C16.49,31.36,16.13,31.4,15.78,31.47z M38.01,31.47c-0.35-0.07-0.7-0.11-1.06-0.11h-0.41v-2.62h0.41c0.54,0,1.07,0.05,1.59,0.16
					L38.01,31.47z M35.66,31.36h-1.75v-2.62h1.75V31.36z M33.03,31.36h-1.75v-2.62h1.75V31.36z M30.4,31.36h-1.75v-2.62h1.75V31.36z
					 M27.77,31.36h-1.75v-2.62h1.75V31.36z M25.14,31.36h-1.75v-2.62h1.75V31.36z M22.51,31.36h-1.75v-2.62h1.75V31.36z
					 M19.89,31.36h-1.75v-2.62h1.75V31.36z"/>
			</g>
			<g style="clip-path:url(#SVGID_00000166649325133427720740000014301853011396260528_);">
				<path class="st5" d="M24.82,20.38c0.03,1.59,0.48,3,1.78,4.02c1.03,0.81,2.24,1.05,3.51,1.13c0.1,0.01,0.22-0.05,0.33,0.09
					c-0.61,0.31-1.23,0.49-1.87,0.62c-0.2,0.04-0.54-0.04-0.57,0.14c-0.04,0.24,0.3,0.26,0.48,0.35c0.44,0.24,0.59,0.57,0.39,0.9
					c-0.21,0.35-0.72,0.45-1.08,0.2c-0.11-0.08-0.22-0.18-0.33-0.26c-0.68-0.5-1.2-0.51-1.89-0.01c-0.19,0.14-0.37,0.29-0.59,0.37
					c-0.36,0.14-0.8-0.01-0.93-0.32c-0.13-0.32,0.03-0.69,0.41-0.86c0.39-0.18,0.81-0.3,1.24-0.37c0.11-0.02,0.29,0.02,0.3-0.12
					c0.01-0.16-0.18-0.13-0.29-0.17c-1.55-0.47-2.92-1.25-4.05-2.41c-1.13-1.16-1.79-2.53-1.71-4.19c0.04-0.91,0.3-1.77,0.57-2.63
					c0.34-1.05,0.39-2-0.63-2.77c-0.32-0.24-0.59-0.32-0.95-0.26c-0.13,0.02-0.25,0.06-0.37,0.11c-0.23,0.1-0.26,0-0.24-0.2
					c0.04-0.43,0.24-0.78,0.53-1.08c0.15-0.16,0.24-0.32,0.27-0.54c0.07-0.52,0.3-0.99,0.67-1.36c0.15-0.15,0.19-0.28,0.12-0.49
					c-0.23-0.68,0.33-1.29,1.02-1.14C21.1,9.17,21.19,9.16,21.27,9c0.46-0.87,1.39-0.9,1.9-0.08c0.08,0.12,0.15,0.18,0.3,0.17
					c0.63-0.04,1.15,0.29,1.31,0.82c0.19,0.6-0.02,1.11-0.62,1.48c-0.13,0.08-0.18,0.14-0.11,0.3c0.38,0.81,0.74,1.64,1.14,2.45
					c0.72,1.45,1.83,2.33,3.52,2.37c1.46,0.03,2.89-0.11,4.29-0.54c1.05-0.32,2.03-0.77,2.85-1.53c0.14-0.13,0.22-0.32,0.41-0.41
					c0.02,0.04,0.04,0.06,0.04,0.08c-0.15,1.17-0.48,2.26-1.37,3.1c-0.06,0.06-0.15,0.1-0.12,0.19c0.03,0.08,0.12,0.05,0.18,0.06
					c0.29,0.06,0.55,0.2,0.78,0.39c0.16,0.13,0.19,0.24-0.06,0.29c-0.28,0.06-0.53,0.17-0.74,0.38c-0.13,0.13-0.17,0.21,0.05,0.29
					c0.31,0.11,0.59,0.28,0.81,0.53c0.09,0.11,0.15,0.2-0.04,0.26c-0.63,0.19-0.96,0.71-1.3,1.22c-0.42,0.65-0.83,1.29-1.38,1.85
					c-1.53,1.56-4.58,1.53-6.21,0.46c-1.1-0.72-1.7-1.77-2.02-3.11C24.85,20.19,24.81,20.28,24.82,20.38z M21.63,12.01
					c0-0.24-0.24-0.47-0.48-0.46c-0.24,0-0.47,0.24-0.46,0.48c0,0.25,0.22,0.46,0.48,0.46C21.42,12.48,21.64,12.26,21.63,12.01z"/>
			</g>
		</g>
	</g>
</g>
<g id="circle_outline">
	<circle class="st6" cx="23.92" cy="23.92" r="17.94"/>
</g>
</svg>
