<?xml version="1.0" encoding="utf-8"?>
<!-- Generator: Adobe Illustrator 25.4.1, SVG Export Plug-In . SVG Version: 6.00 Build 0)  -->
<svg version="1.1" id="Layer_1" xmlns="http://www.w3.org/2000/svg" xmlns:xlink="http://www.w3.org/1999/xlink" x="0px" y="0px"
	 viewBox="0 0 48 64" style="enable-background:new 0 0 48 64;" xml:space="preserve">
<style type="text/css">
	.st0{enable-background:new    ;}
	.st1{opacity:0.83;fill:#8BB720;enable-background:new    ;}
	.st2{fill:#8BB720;}
	.st3{clip-path:url(#SVGID_00000041270542653211036280000001929966346415676037_);}
	.st4{fill:#FFFFFF;}
	.st5{fill:none;stroke:#FFFFFF;stroke-miterlimit:10;}
</style>
<g id="Layer_1_00000057857407267569421500000006907398272516446642_">
	<g class="st0">
		<path class="st1" d="M24,62.5c-0.42,0-0.76-0.18-1-0.53c-3.39-4.92-6.18-8.9-8.46-12.14C3.8,34.53,1.58,31.36,1.58,23.92
			C1.58,11.56,11.64,1.5,24,1.5s22.42,10.06,22.42,22.42c0,7.44-2.22,10.61-12.9,25.84l-1.14,1.64c-2.16,3.08-4.58,6.53-7.38,10.59
			C24.77,62.31,24.41,62.5,24,62.5z"/>
		<g>
			<path class="st2" d="M24,3c11.54,0,20.92,9.39,20.92,20.92c0,6.97-1.93,9.71-12.62,24.97l-0.06,0.09l-1.18,1.68
				c-2.07,2.95-4.41,6.28-7.05,10.12c-3.31-4.8-6.02-8.66-8.24-11.82l-0.05-0.08C5.01,33.64,3.08,30.89,3.08,23.92
				C3.08,12.39,12.47,3,24,3 M24,0C10.81,0,0.08,10.73,0.08,23.92c0,7.93,2.28,11.17,13.23,26.77c2.44,3.46,5.19,7.38,8.46,12.13
				C22.28,63.57,23.09,64,24,64s1.72-0.43,2.23-1.16c3.27-4.75,6.03-8.67,8.46-12.13C45.63,35.1,47.92,31.85,47.92,23.92
				C47.92,10.73,37.19,0,24,0L24,0z"/>
		</g>
	</g>
</g>
<g id="kip">
</g>
<g id="circle">
	<g>
		<g>
			<defs>
				<circle id="SVGID_1_" cx="24" cy="23.92" r="17.94"/>
			</defs>
			<clipPath id="SVGID_00000127753181336987399260000007205060572401047986_">
				<use xlink:href="#SVGID_1_"  style="overflow:visible;"/>
			</clipPath>
			<g style="clip-path:url(#SVGID_00000127753181336987399260000007205060572401047986_);">
				<path class="st4" d="M29.13,46.49c-0.34-0.15-0.67-0.46-0.94-0.93c-0.56-1.15-0.93-2.17-1.1-3.05l-0.26-0.85l-0.34,0.17
					c-0.51,0.4-1.95,0.93-4.34,1.61l-0.43,0.08l0.43,0.09c0.11,0.06,0.29,0.09,0.56,0.09h0.72c0.63,0,1.29,0.08,1.97,0.24
					s1.16,0.34,1.44,0.51c0.56,0.79,0.83,1.4,0.83,1.79c0,0.26-0.05,0.39-0.15,0.39c-1.94,0-3.47,0.02-4.59,0.05
					c-1.13,0.03-2.85,0.05-5.19,0.05c-0.9,0-1.63-0.05-2.16-0.13c-0.53-0.09-1.29-0.29-2.25-0.63l-1.02-0.34l-0.93,0.4
					c-0.96,0.48-1.84,0.72-2.62,0.72c-0.34,0-0.65-0.05-0.94-0.13c-1.02-0.28-1.79-0.9-2.29-1.86c-0.17-0.31-0.26-0.65-0.26-1.02
					s0.06-0.67,0.17-0.9c0.28-0.54,0.87-0.99,1.79-1.36l-0.2-0.68c-0.4-1.36-0.62-2.81-0.62-4.3c0-2.42,0.72-4.63,2.14-6.63
					c0.4-0.57,0.93-1.18,1.61-1.83c0.68-0.65,1.3-1.18,1.86-1.57c1.47-1.02,2.7-1.58,3.67-1.69c0.98-0.11,1.66-0.15,2.06-0.15
					c1.36,0,2.97,0.22,4.82,0.65c0.62,0.13,1.24,0.19,1.86,0.19c0.7,0,1.22-0.13,1.58-0.35c0.09-0.05,0.13-0.13,0.13-0.24
					c0.13-0.15,0.22-0.56,0.29-1.21l0.11-1.01c0-0.06-0.14-0.11-0.42-0.13c-0.28-0.03-0.62-0.06-1.01-0.13
					c-4.76-0.62-7.68-1.68-8.75-3.14c-0.14-0.24-0.2-0.4-0.2-0.48s0.19-0.11,0.56-0.11c1.15,0,2.73-0.17,4.74-0.5
					c0.79-0.13,1.46-0.19,2.01-0.19c0.83,0,1.84,0.26,3.01,0.77c0.11,0.05,0.2,0.11,0.26,0.17c0.82,0.35,1.29,0.54,1.41,0.54
					c0.08,0,0.24-0.09,0.54-0.28l0.5-0.53c-0.56-0.72-1.09-1.47-1.57-2.25c-0.48-0.77-0.87-1.38-1.15-1.83
					c-0.67-1.35-1.07-2.45-1.2-3.32c-0.08-0.4-0.11-0.81-0.11-1.21c0-0.81,0.13-1.46,0.37-1.94h0.09c0.09,0,0.26,0.11,0.54,0.34
					c0.14,0.11,0.34,0.28,0.63,0.51c0.28,0.24,0.59,0.54,0.93,0.94c1.77,1.52,2.79,2.53,3.1,3.01c0.2,0.31,0.4,0.67,0.63,1.05
					c0.63,1.36,1.05,2.53,1.29,3.47c0,0.33,0.06,0.51,0.17,0.56c0.06,0.03,0.13,0.06,0.17,0.13c1.84,0.43,3.21,1.2,4.09,2.29
					c0.22,0.28,0.45,0.59,0.67,0.93c0.45,0.72,0.79,1.21,1.02,1.46c0.61,0.7,0.92,1.18,0.92,1.46c0,0.13-0.05,0.24-0.15,0.34
					c0,0.05-0.05,0.14-0.13,0.29c-0.09,0.14-0.15,0.29-0.2,0.48c-0.13,0.46-0.29,0.82-0.53,1.07c-0.22,0.24-0.56,0.5-1.02,0.72
					c-0.42,0.17-0.82,0.43-1.2,0.76c-0.22,0.34-0.33,0.72-0.35,1.2l-0.03,0.72c0,0.39,0.02,0.85,0.06,1.41
					c0,0.85-0.02,1.35-0.03,1.5c-0.03,0.14-0.09,0.29-0.22,0.45c-0.39,1.02-0.98,2.01-1.77,3.01c-0.9,1.11-1.86,2.01-2.9,2.68
					c0,0.96-0.05,1.81-0.13,2.56s-0.15,1.44-0.22,2.11c-0.06,0.13-0.09,0.24-0.09,0.35s0.03,0.19,0.09,0.24
					c0,0.06,0.06,0.11,0.17,0.14s0.22,0.08,0.34,0.13c0.31,0.11,0.57,0.17,0.77,0.17c0.45,0.22,0.67,0.62,0.67,1.2
					c0,0.51-0.11,0.82-0.34,0.94c-0.22,0.13-0.61,0.19-1.13,0.19C30.39,46.86,29.61,46.74,29.13,46.49z"/>
			</g>
		</g>
	</g>
</g>
<g id="circle_outline">
	<circle class="st5" cx="24" cy="23.92" r="17.94"/>
</g>
</svg>
