<?xml version="1.0" encoding="utf-8"?>
<!-- Generator: Adobe Illustrator 25.4.1, SVG Export Plug-In . SVG Version: 6.00 Build 0)  -->
<svg version="1.1" id="Layer_1" xmlns="http://www.w3.org/2000/svg" xmlns:xlink="http://www.w3.org/1999/xlink" x="0px" y="0px"
	 viewBox="0 0 48 64" style="enable-background:new 0 0 48 64;" xml:space="preserve">
<style type="text/css">
	.st0{enable-background:new    ;}
	.st1{opacity:0.83;fill:#881640;enable-background:new    ;}
	.st2{fill:#881640;}
	.st3{clip-path:url(#SVGID_00000022552322183946083150000015807624796347479214_);}
	.st4{fill:#FFFFFF;}
	.st5{clip-path:url(#SVGID_00000043437299911294327490000000891388271862095282_);}
	.st6{fill:none;stroke:#FFFFFF;stroke-miterlimit:10;}
</style>
<g id="Layer_1_00000101817346854684851790000015411602919576678067_">
	<g class="st0">
		<path class="st1" d="M24,62.5c-0.42,0-0.76-0.18-1-0.53c-3.39-4.92-6.18-8.9-8.46-12.14C3.8,34.53,1.58,31.36,1.58,23.92
			C1.58,11.56,11.64,1.5,24,1.5s22.42,10.06,22.42,22.42c0,7.44-2.22,10.61-12.9,25.84l-1.14,1.64c-2.16,3.08-4.58,6.53-7.38,10.59
			C24.77,62.31,24.41,62.5,24,62.5z"/>
		<g>
			<path class="st2" d="M24,3c11.54,0,20.92,9.39,20.92,20.92c0,6.97-1.93,9.71-12.62,24.97l-0.06,0.09l-1.18,1.68
				c-2.07,2.95-4.41,6.28-7.05,10.12c-3.31-4.8-6.02-8.66-8.24-11.82l-0.05-0.08C5.01,33.64,3.08,30.89,3.08,23.92
				C3.08,12.39,12.47,3,24,3 M24,0C10.81,0,0.08,10.73,0.08,23.92c0,7.93,2.28,11.17,13.23,26.77c2.44,3.46,5.19,7.38,8.46,12.13
				C22.28,63.57,23.09,64,24,64s1.72-0.43,2.23-1.16c3.27-4.75,6.03-8.67,8.46-12.13C45.63,35.1,47.92,31.85,47.92,23.92
				C47.92,10.73,37.19,0,24,0L24,0z"/>
		</g>
	</g>
</g>
<g id="kip">
</g>
<g id="circle">
	<g>
		<g>
			<defs>
				<circle id="SVGID_1_" cx="24" cy="23.92" r="17.94"/>
			</defs>
			<clipPath id="SVGID_00000137117330947322393960000002912180736047790752_">
				<use xlink:href="#SVGID_1_"  style="overflow:visible;"/>
			</clipPath>
			<g style="clip-path:url(#SVGID_00000137117330947322393960000002912180736047790752_);">
				<path class="st4" d="M18.57,36.05c0.15,0.21,0.4,0.33,0.52,0.57c-0.22,0.12-0.41,0.04-0.55-0.07c-0.67-0.52-1.35-0.43-2.06-0.09
					c-0.37,0.18-0.75,0.34-1.14,0.5c-0.12,0.05-0.24,0.15-0.41,0.1c0.18-0.27,0.48-0.37,0.71-0.61c-0.48-0.07-0.92,0.07-1.42,0.01
					c0.18-0.21,0.38-0.25,0.57-0.29c0.57-0.11,1.12-0.28,1.65-0.52c0.45-0.21,0.76-0.51,0.89-1.02c0.12-0.49,0.3-0.96,0.47-1.48
					c-0.87-0.08-1.36-0.61-1.75-1.29c-0.28-0.49-0.59-0.96-1.06-1.31c-0.29-0.22-0.63-0.36-0.96-0.46c-1.09-0.34-1.9-1.03-2.55-1.95
					c-0.71-1.03-1.14-2.17-1.42-3.37c-0.09-0.37-0.17-0.76-0.22-1.14c-0.11-0.77-0.01-1.51,0.26-2.24c0.13-0.35,0.27-0.69,0.36-1.06
					c0.03-0.12,0.05-0.24,0.05-0.3c-0.03-0.1-0.05-0.11-0.08-0.1c-0.46,0.14-0.65-0.02-0.6-0.49c0.03-0.22,0.1-0.42,0.15-0.64
					c-0.2-0.06-0.2-0.06-1.02,0.27c0.07-0.64,0.33-1.16,0.84-1.59c-0.17-0.17-0.29-0.35-0.09-0.57c-0.13-0.19-0.24-0.38-0.03-0.59
					c0.11-0.11-0.01-0.28,0.04-0.34c0.1-0.16,0.22-0.17,0.32-0.22c0.11-0.42,0.15-0.45,0.57-0.38c0.13-0.17,0.29-0.29,0.52-0.14
					c0.05,0.03,0.1,0.07,0.15,0.03c0.26-0.16,0.49,0.14,0.75,0.07c0.07-0.02,0.17,0.06,0.18,0.14c0.03,0.16,0.14,0.25,0.22,0.37
					c0.16,0.22-0.01,0.38-0.2,0.52c1.2,0.28,2.09,0.96,2.83,1.88c0.32,0.4,0.59,0.84,0.84,1.27c0.27,0.46,0.63,0.84,1.06,1.14
					c0.61,0.42,1.31,0.52,2.02,0.45c0.96-0.09,1.92-0.2,2.87-0.36c1.53-0.25,2.75-1.03,3.79-2.13c0.24-0.25,0.44-0.53,0.64-0.81
					c0.3-0.42,0.64-0.79,1.1-1.05c0.21-0.12,0.43-0.19,0.67-0.2c0.37-0.02,0.45,0.06,0.49,0.44c0.01,0.04,0.02,0.07,0.03,0.11
					c0.65-0.02,0.94,0.07,0.87,0.87c0.73,0.41,0.75,0.48,0.34,1.06c0.56,0.95,0.15,1.13-0.55,1.3c0.07,0.07,0.14,0.13,0.2,0.18
					c0.4,0.34,0.45,0.71,0.1,1.11c-0.14,0.17-0.32,0.3-0.5,0.47c0.21,0.34,0.46,0.69,0.29,1.13c-0.16,0.41-0.55,0.56-0.9,0.76
					c0.05,0.52,0.14,1.05-0.49,1.31c-0.06,0.6-0.38,0.93-1.02,0.93c-0.12,0.36-0.15,0.74-0.41,1.03c-0.26,0.3-0.61,0.41-1,0.42
					c-0.11,0.29,0.18,0.71-0.32,0.87c0.11,0.31,0.02,0.56-0.19,0.8c-0.25,0.28-0.38,0.64-0.55,0.97c-0.31,0.64-0.71,1.21-1.31,1.62
					c-0.18,0.13-0.38,0.23-0.59,0.31c-0.58,0.22-1.16,0.45-1.76,0.6c-0.49,0.12-0.8,0.38-0.91,0.9c-0.09,0.42-0.21,0.83-0.26,1.26
					c-0.03,0.31,0.01,0.38,0.3,0.49c0.18,0.07,0.37,0.12,0.55,0.2c0.14,0.06,0.29,0.12,0.26,0.33c-0.22,0.07-0.41-0.05-0.6-0.09
					c-0.36-0.09-0.71-0.23-1.1-0.14C18.89,35.86,18.72,35.91,18.57,36.05z M18.72,33.2c-0.14,0.27-0.29,0.52-0.4,0.79
					c-0.15,0.37-0.33,0.72-0.42,1.12c-0.05,0.2-0.01,0.36,0.21,0.41c0.77-0.28,1.29-1.29,1.18-2.34
					C19.12,33.18,18.94,33.19,18.72,33.2z"/>
			</g>
		</g>
		<g>
			<defs>
				<circle id="SVGID_00000123426195959447097630000011981858707583193768_" cx="24" cy="23.92" r="17.94"/>
			</defs>
			<clipPath id="SVGID_00000091705817443149191550000007334547108848767145_">
				<use xlink:href="#SVGID_00000123426195959447097630000011981858707583193768_"  style="overflow:visible;"/>
			</clipPath>
			<g style="clip-path:url(#SVGID_00000091705817443149191550000007334547108848767145_);">
				<path class="st4" d="M31.59,37.4c-2.76-0.01-4.89-2.37-4.59-5.13c0.25-2.25,1.04-4.3,2.49-6.06c0.23-0.28,0.5-0.52,0.81-0.73
					c0.88-0.6,1.76-0.59,2.64,0.02c0.8,0.55,1.34,1.33,1.8,2.16c0.81,1.49,1.37,3.07,1.5,4.77C36.43,35.15,34.26,37.42,31.59,37.4z"
					/>
			</g>
		</g>
	</g>
</g>
<g id="circle_outline">
	<circle class="st6" cx="24" cy="23.92" r="17.94"/>
</g>
</svg>
