<?xml version="1.0" encoding="utf-8"?>
<!-- Generator: Adobe Illustrator 25.4.1, SVG Export Plug-In . SVG Version: 6.00 Build 0)  -->
<svg version="1.1" xmlns="http://www.w3.org/2000/svg" xmlns:xlink="http://www.w3.org/1999/xlink" x="0px" y="0px"
	 viewBox="0 0 47.84 64" style="enable-background:new 0 0 47.84 64;" xml:space="preserve">
<style type="text/css">
	.st0{enable-background:new    ;}
	.st1{opacity:0.83;fill:#311C7C;}
	.st2{fill:#311C7C;}
	.st3{clip-path:url(#SVGID_00000076605707803653219540000016617918069602754949_);}
	.st4{fill:#FFFFFF;}
	.st5{fill:none;stroke:#FFFFFF;stroke-miterlimit:10;}
</style>
<g id="Layer_1">
	<g class="st0">
		<path class="st1" d="M23.92,62.5c-0.42,0-0.76-0.18-1-0.53c-3.39-4.92-6.18-8.9-8.46-12.14C3.72,34.53,1.5,31.36,1.5,23.92
			C1.5,11.56,11.56,1.5,23.92,1.5c12.36,0,22.42,10.06,22.42,22.42c0,7.44-2.22,10.61-12.9,25.84L32.3,51.4
			c-2.16,3.08-4.58,6.53-7.38,10.59C24.69,62.31,24.33,62.5,23.92,62.5z"/>
		<g>
			<path class="st2" d="M23.92,3c11.54,0,20.92,9.39,20.92,20.92c0,6.97-1.93,9.71-12.62,24.97l-0.06,0.09l-1.18,1.68
				c-2.07,2.95-4.41,6.28-7.05,10.12c-3.31-4.8-6.02-8.66-8.24-11.82l-0.05-0.08C4.93,33.64,3,30.89,3,23.92
				C3,12.39,12.39,3,23.92,3 M23.92,0C10.73,0,0,10.73,0,23.92c0,7.93,2.28,11.17,13.23,26.77c2.44,3.46,5.19,7.38,8.46,12.13
				C22.2,63.57,23.01,64,23.92,64c0.91,0,1.72-0.43,2.23-1.16c3.27-4.75,6.03-8.67,8.46-12.13c10.94-15.61,13.23-18.86,13.23-26.79
				C47.84,10.73,37.11,0,23.92,0L23.92,0z"/>
		</g>
	</g>
</g>
<g id="kip">
</g>
<g id="circle">
	<g>
		<defs>
			<circle id="SVGID_1_" cx="23.92" cy="23.92" r="17.94"/>
		</defs>
		<clipPath id="SVGID_00000183955746177513305820000000977232161717377164_">
			<use xlink:href="#SVGID_1_"  style="overflow:visible;"/>
		</clipPath>
		<g style="clip-path:url(#SVGID_00000183955746177513305820000000977232161717377164_);">
			<path class="st4" d="M55.09,29.62c0.2,0.59-0.07,0.93-0.33,1.29c-0.75,1.04-1.27,2.2-1.68,3.42c-0.06,0.2-0.14,0.39-0.23,0.59
				c-0.12,0.25-0.31,0.34-0.55,0.14c-0.42-0.36-0.65-0.12-0.84,0.26c-0.06,0.11-0.1,0.22-0.16,0.33c-0.16,0.28-0.12,0.78-0.45,0.83
				c-0.63,0.09-1.3,0.13-1.91-0.14c-0.31-0.14-0.18-0.42-0.06-0.63c0.3-0.52,0.71-0.95,1.11-1.4c0.24-0.27,0.5-0.55,0.73-0.83
				c0.85-1.03,1.28-2.87-0.02-4.32c-0.49-0.54-0.91-1.11-0.98-1.86c-0.04-0.42-0.34-0.4-0.63-0.3c-0.58,0.2-1.14,0.45-1.72,0.66
				c-0.57,0.21-1.15,0.4-1.73,0.59c-1.02,0.32-2.03,0.3-3.03-0.06c-0.74-0.26-1.49-0.36-2.26-0.36c-1.63,0.01-3.25-0.02-4.87,0.03
				c-1.22,0.04-1.73,0.78-2.04,1.95c-0.22,0.85-0.07,1.71,0.04,2.56c0.15,1.23,0.2,2.47,0.22,3.71c0.02,0.71-0.07,0.77-0.77,0.69
				c-0.3-0.03-0.21,0.16-0.22,0.3c-0.05,0.83-0.1,0.88-0.95,0.95c-0.42,0.03-0.83,0.04-1.26,0.05c-0.37,0.01-0.45-0.14-0.26-0.47
				c0.52-0.89,0.93-1.84,1.14-2.85c0.2-0.95-0.25-1.71-0.73-2.43c-0.22-0.34-0.33-0.01-0.38,0.18c-0.23,0.78-0.18,1.6-0.29,2.39
				c-0.02,0.17-0.05,0.34-0.09,0.51c-0.05,0.18-0.22,0.36-0.38,0.3c-0.72-0.3-0.75,0.27-0.77,0.66c-0.02,0.47-0.18,0.55-0.59,0.53
				c-0.42-0.03-0.84-0.02-1.26-0.01c-0.26,0.01-0.3-0.09-0.17-0.3c0.21-0.34,0.41-0.7,0.62-1.03c0.84-1.33,1.17-2.73,0.69-4.29
				c-0.2-0.64-0.25-1.34-0.37-2c-0.05-0.26-0.1-0.51-0.43-0.58c-1.56-0.34-3.05-0.86-4.59-1.25c-1.19-0.3-2.44-0.2-3.66-0.3
				c-0.86-0.07-1.69-0.22-2.49-0.59c-1.68-0.79-3.39-1.51-4.87-2.65c-0.08-0.06-0.18-0.1-0.26-0.17c-0.34-0.25-0.88-0.26-1-0.77
				c-0.18-0.75-0.31-1.51-0.04-2.28c0.11-0.33,0.27-0.51,0.66-0.37c0.51,0.18,1,0.1,1.48-0.11c1.14-0.49,2.12-1.19,2.98-2.09
				c0.38-0.4,0.47-0.83,0.22-1.34c-0.21-0.44-0.37-0.91-0.54-1.36c-0.39-1.03-0.86-2.03-1.52-2.92c-0.09-0.12-0.26-0.24-0.18-0.4
				c0.09-0.15,0.29-0.07,0.43-0.08c0.85-0.02,1.68,0.06,2.42,0.54c0.03,0.02,0.06,0.04,0.1,0.05c0.16,0.04,0.32,0.22,0.48,0.05
				c0.15-0.15,0.02-0.34-0.02-0.49c-0.04-0.17-0.14-0.32-0.2-0.48c-0.06-0.16-0.18-0.32-0.02-0.48c0.15-0.15,0.34-0.07,0.49-0.02
				c0.75,0.3,1.48,0.67,1.99,1.31c0.55,0.71,1.21,0.91,2.03,0.61c1.97-0.71,4-1.12,6.09-1.24c1.22-0.07,2.44-0.19,3.66-0.23
				c2.41-0.07,4.75-0.44,7.09-1.02c1.26-0.31,2.57-0.24,3.84-0.51c3.38-0.7,6.76-0.39,10.11,0.05c2.71,0.36,5.01,1.78,7.13,3.47
				c0.9,0.72,1.38,1.75,1.89,2.74c0.27,0.53,0.47,1.09,1.21,1.24c0.49,0.1,0.59,0.79,0.25,1.34c-0.2,0.32-0.26,0.55,0.15,0.75
				c-0.73,0.14-0.85,0-0.65-0.64c0.06-0.2,0.34-0.47,0-0.63c-0.37-0.17-0.59,0.11-0.71,0.42c-0.15,0.38-0.22,0.77-0.23,1.18
				c-0.06,2.28-0.48,4.48-1.72,6.45c-0.34,0.55-0.33,1.07-0.02,1.63c0.34,0.63,0.69,1.26,1.24,1.73c0.42,0.36,0.57,0.8,0.43,1.36
				c-0.12,0.51-0.18,1.03-0.28,1.55c-0.18,0.96-0.13,1.91,0.15,2.85c0.17,0.56-0.02,0.91-0.59,1.06c-0.34,0.09-0.34,0.32-0.32,0.56
				c0.03,0.48-0.17,0.69-0.64,0.75c-0.5,0.06-0.99,0.23-1.49,0.3c-0.5,0.06-0.63-0.14-0.5-0.62c0.3-1.02,0.82-1.96,1.03-3.02
				c0.11-0.56,0.12-1.11-0.12-1.64c-0.22-0.47-0.47-0.94-0.68-1.41C57.01,30.55,56.16,30.07,55.09,29.62z"/>
		</g>
	</g>
</g>
<g id="circle_outline">
	<circle class="st5" cx="23.92" cy="23.92" r="17.94"/>
</g>
</svg>
