<?xml version="1.0" encoding="utf-8"?>
<!-- Generator: Adobe Illustrator 25.4.1, SVG Export Plug-In . SVG Version: 6.00 Build 0)  -->
<svg version="1.1" id="Layer_1" xmlns="http://www.w3.org/2000/svg" xmlns:xlink="http://www.w3.org/1999/xlink" x="0px" y="0px"
	 viewBox="0 0 48 64" style="enable-background:new 0 0 48 64;" xml:space="preserve">
<style type="text/css">
	.st0{enable-background:new    ;}
	.st1{opacity:0.83;fill:#25A09A;enable-background:new    ;}
	.st2{fill:#25A09A;}
	.st3{clip-path:url(#SVGID_00000134235921682502641620000005496159896460975756_);fill:#FFFFFF;}
	.st4{fill:none;stroke:#FFFFFF;stroke-miterlimit:10;}
</style>
<g id="Layer_1_00000151516259971519164050000007932989320667376024_">
	<g class="st0">
		<path class="st1" d="M24,62.5c-0.42,0-0.76-0.18-1-0.53c-3.39-4.92-6.18-8.9-8.46-12.14C3.8,34.53,1.58,31.36,1.58,23.92
			C1.58,11.56,11.64,1.5,24,1.5s22.42,10.06,22.42,22.42c0,7.44-2.22,10.61-12.9,25.84l-1.14,1.64c-2.16,3.08-4.58,6.53-7.38,10.59
			C24.77,62.31,24.41,62.5,24,62.5z"/>
		<g>
			<path class="st2" d="M24,3c11.54,0,20.92,9.39,20.92,20.92c0,6.97-1.93,9.71-12.62,24.97l-0.06,0.09l-1.18,1.68
				c-2.07,2.95-4.41,6.28-7.05,10.12c-3.31-4.8-6.02-8.66-8.24-11.82l-0.05-0.08C5.01,33.64,3.08,30.89,3.08,23.92
				C3.08,12.39,12.47,3,24,3 M24,0C10.81,0,0.08,10.73,0.08,23.92c0,7.93,2.28,11.17,13.23,26.77c2.44,3.46,5.19,7.38,8.46,12.13
				C22.28,63.57,23.09,64,24,64s1.72-0.43,2.23-1.16c3.27-4.75,6.03-8.67,8.46-12.13C45.63,35.1,47.92,31.85,47.92,23.92
				C47.92,10.73,37.19,0,24,0L24,0z"/>
		</g>
	</g>
</g>
<g id="kip">
</g>
<g id="circle">
	<g>
		<g>
			<defs>
				<circle id="SVGID_1_" cx="24" cy="23.92" r="17.94"/>
			</defs>
			<clipPath id="SVGID_00000114788417791133062650000011873246313824889236_">
				<use xlink:href="#SVGID_1_"  style="overflow:visible;"/>
			</clipPath>
			<path style="clip-path:url(#SVGID_00000114788417791133062650000011873246313824889236_);fill:#FFFFFF;" d="M16.63,30.26
				c0.17-0.44,0.43-0.71,0.85-0.88c0.74-0.32,1-1.02,0.67-1.77c-0.19-0.43-0.43-0.87-0.75-1.21c-1.31-1.39-2.24-3-3.02-4.72
				c-0.27-0.59-0.64-0.9-1.31-0.92c-0.52-0.01-1.04-0.06-1.53-0.21c-0.43-0.13-0.83-0.37-1.2-0.62c-0.29-0.2-0.28-0.4-0.02-0.66
				c0.12-0.12,0.26-0.23,0.41-0.31c0.55-0.28,0.93-0.73,1.24-1.24c0.71-1.16,1.91-1.69,3.24-1.43c0.68,0.14,1.33,0.37,1.91,0.77
				c0.4,0.27,0.7,0.63,0.94,1.06c0.31,0.53,0.68,1.01,1.07,1.47c0.34,0.4,0.8,0.55,1.33,0.56c1.85,0.03,3.54-0.54,5.15-1.39
				c2.65-1.4,5.36-1.57,8.11-0.28c0.78,0.37,1.59,0.7,2.15,1.39c0.37,0.45,0.7,0.96,0.95,1.49c0.58,1.21,1.12,2.43,1.64,3.67
				c0.68,1.61,0.74,3.22-0.07,4.83c-0.02,0.03-0.04,0.06-0.06,0.09c-1.29,2.64-3.61,3.57-6.34,3.72c-1.49,0.08-2.98,0.01-4.48,0
				c-0.19,0-0.38-0.11-0.57-0.17c0.12-0.19,0.18-0.44,0.35-0.55c0.38-0.25,0.8-0.45,1.22-0.63c1.57-0.66,3.27-0.8,4.92-1.1
				c0.57-0.11,1-0.32,1.34-0.79c0.42-0.61,0.88-1.19,1.29-1.82c0.13-0.19,0.14-0.47,0.15-0.72c0-0.09-0.13-0.2-0.2-0.31
				c-0.08,0.06-0.19,0.12-0.25,0.2c-0.09,0.12-0.15,0.26-0.23,0.39c-0.24,0.36-0.56,0.64-0.99,0.73c-0.8,0.15-1.5,0.56-2.21,0.91
				c-0.16,0.07-0.24,0.32-0.35,0.5c-0.12,0.2-0.19,0.42-0.28,0.63c-0.04-0.01-0.07-0.02-0.12-0.03c0-0.18,0-0.36,0-0.59
				c-0.13,0.05-0.22,0.07-0.28,0.13c-0.56,0.44-0.55,0.44-1.14,0.15c0.17-1.04,0.96-1.4,1.82-1.7c0.16-0.05,0.28-0.21,0.43-0.33
				c-0.13-0.13-0.23-0.29-0.38-0.39c-0.43-0.27-0.88-0.54-1.34-0.79c-0.21-0.12-0.45-0.23-0.68-0.26c-0.88-0.13-1.78-0.31-2.68-0.33
				c-1.39-0.03-2.79,0.06-4.18,0.08c-0.44,0.01-0.65,0.24-0.85,0.63c-0.44,0.84-0.94,1.66-1.47,2.44c-0.2,0.31-0.59,0.47-0.86,0.74
				c-0.32,0.31-0.61,0.63-0.91,0.95c-0.13,0.14-0.27,0.31-0.39,0.05c-0.13-0.27-0.25-0.18-0.45-0.13c-0.24,0.07-0.52,0.12-0.77,0.09
				c-0.24-0.01-0.33-0.21-0.19-0.42c0.15-0.22,0.36-0.4,0.5-0.63c0.07-0.13,0.07-0.31,0.11-0.46c-0.14-0.02-0.28-0.07-0.42-0.06
				C17.16,30.13,16.92,30.2,16.63,30.26z"/>
		</g>
	</g>
</g>
<g id="circle_outline">
	<circle class="st4" cx="24" cy="23.92" r="17.94"/>
</g>
</svg>
