<?xml version="1.0" encoding="utf-8"?>
<!-- Generator: Adobe Illustrator 23.1.0, SVG Export Plug-In . SVG Version: 6.00 Build 0)  -->
<svg version="1.1" id="Layer_1" xmlns="http://www.w3.org/2000/svg" xmlns:xlink="http://www.w3.org/1999/xlink" x="0px" y="0px"
	 viewBox="0 0 498 578.1" style="enable-background:new 0 0 498 578.1;" xml:space="preserve">
<style type="text/css">
	.st0{opacity:0.58;fill:#25408F;}
	.st1{fill:#25408F;}
</style>
<g>
	<path class="st0" d="M249,574.8c-7.2,0-13.6-3.4-17.7-9.3c-25.9-37.6-47.7-68.7-67-96.1C77.6,345.8,59.5,320.1,59.5,257.3
		c0-104.5,85-189.5,189.5-189.5c104.5,0,189.5,85,189.5,189.5c0,62.8-18.1,88.5-104.8,212.2c-19.2,27.4-41.1,58.5-67,96.1
		C262.6,571.4,256.2,574.8,249,574.8z"/>
	<path class="st1" d="M249,70.3c25.2,0,49.7,4.9,72.8,14.7c22.3,9.4,42.3,22.9,59.4,40.1c17.2,17.2,30.7,37.2,40.1,59.4
		c9.7,23.1,14.7,47.5,14.7,72.8c0,32.6-5.1,54-19.4,81.8c-15.3,29.6-41.5,67-85,128.9c-19.2,27.4-41.1,58.5-67,96.1
		c-3.6,5.2-9.3,8.2-15.6,8.2c-6.3,0-12-3-15.6-8.2c-25.9-37.6-47.7-68.7-67-96.1c-43.4-61.9-69.7-99.3-85-128.9
		C67.1,311.3,62,289.9,62,257.3c0-25.2,4.9-49.7,14.7-72.8c9.4-22.3,22.9-42.3,40.1-59.4c17.2-17.2,37.2-30.7,59.4-40.1
		C199.3,75.2,223.8,70.3,249,70.3 M249,65.3c-106,0-192,86-192,192c0,77.4,27,99,172.3,309.7c4.8,6.9,12.2,10.3,19.7,10.3
		c7.5,0,15-3.4,19.7-10.3C414,356.3,441,334.7,441,257.3C441,151.2,355,65.3,249,65.3L249,65.3z"/>
</g>
</svg>
