<?xml version="1.0" encoding="utf-8"?>
<!-- Generator: Adobe Illustrator 23.1.0, SVG Export Plug-In . SVG Version: 6.00 Build 0)  -->
<svg version="1.1" xmlns="http://www.w3.org/2000/svg" xmlns:xlink="http://www.w3.org/1999/xlink" x="0px" y="0px"
	 viewBox="0 0 498 578.1" style="enable-background:new 0 0 498 578.1;" xml:space="preserve">
<style type="text/css">
	.st0{opacity:0.58;fill:#D50057;}
	.st1{fill:#D50057;}
	.st2{fill:#FFFFFF;}
	.st3{clip-path:url(#SVGID_2_);}
	.st4{fill:#25408F;}
</style>
<g id="Layer_1">
	<g>
		<path class="st0" d="M249,574.8c-7.2,0-13.6-3.4-17.7-9.3c-25.9-37.6-47.7-68.7-67-96.1C77.6,345.8,59.5,320.1,59.5,257.3
			c0-104.5,85-189.5,189.5-189.5c104.5,0,189.5,85,189.5,189.5c0,62.8-18.1,88.5-104.8,212.2c-19.2,27.4-41.1,58.5-67,96.1
			C262.6,571.4,256.2,574.8,249,574.8z"/>
		<path class="st1" d="M249,70.3c25.2,0,49.7,4.9,72.8,14.7c22.3,9.4,42.3,22.9,59.4,40.1c17.2,17.2,30.7,37.2,40.1,59.4
			c9.7,23.1,14.7,47.5,14.7,72.8c0,32.6-5.1,54-19.4,81.8c-15.3,29.6-41.5,67-85,128.9c-19.2,27.4-41.1,58.5-67,96.1
			c-3.6,5.2-9.3,8.2-15.6,8.2c-6.3,0-12-3-15.6-8.2c-25.9-37.6-47.7-68.7-67-96.1c-43.4-61.9-69.7-99.3-85-128.9
			C67.1,311.3,62,289.9,62,257.3c0-25.2,4.9-49.7,14.7-72.8c9.4-22.3,22.9-42.3,40.1-59.4c17.2-17.2,37.2-30.7,59.4-40.1
			C199.3,75.2,223.8,70.3,249,70.3 M249,65.3c-106,0-192,86-192,192c0,77.4,27,99,172.3,309.7c4.8,6.9,12.2,10.3,19.7,10.3
			c7.5,0,15-3.4,19.7-10.3C414,356.3,441,334.7,441,257.3C441,151.2,355,65.3,249,65.3L249,65.3z"/>
	</g>
</g>
<g id="Layer_2">
	<path class="st2" d="M410.3,257.3c0,89.1-72.2,161.3-161.3,161.3S87.7,346.3,87.7,257.3S159.9,96,249,96S410.3,168.2,410.3,257.3z"
		/>
</g>
<g id="Layer_3">
</g>
<g id="Layer_4">
	<g>
		<defs>
			<path id="SVGID_1_" d="M403,257.3c0,85.1-68.9,154-154,154s-154-68.9-154-154s68.9-154,154-154S403,172.2,403,257.3z"/>
		</defs>
		<clipPath id="SVGID_2_">
			<use xlink:href="#SVGID_1_"  style="overflow:visible;"/>
		</clipPath>
		<g class="st3">
			<path class="st4" d="M686.1,387.2c2.5,7.4-0.9,11.6-4.1,16.1c-9.4,13-15.8,27.5-20.9,42.7c-0.8,2.5-1.7,4.9-2.9,7.3
				c-1.5,3.1-3.9,4.2-6.8,1.7c-5.3-4.5-8.1-1.5-10.5,3.2c-0.7,1.4-1.2,2.8-2,4.1c-2,3.5-1.5,9.7-5.6,10.3
				c-7.9,1.1-16.2,1.6-23.8-1.8c-3.9-1.7-2.3-5.2-0.7-7.9c3.7-6.5,8.9-11.8,13.8-17.4c3-3.4,6.2-6.8,9.1-10.3
				c10.6-12.8,16-35.8-0.3-53.9c-6.1-6.7-11.3-13.8-12.2-23.2c-0.5-5.2-4.2-5-7.8-3.8c-7.2,2.5-14.2,5.6-21.4,8.2
				c-7.1,2.6-14.4,5-21.6,7.3c-12.7,4-25.3,3.7-37.8-0.7c-9.2-3.2-18.6-4.5-28.2-4.5c-20.3,0.1-40.5-0.3-60.8,0.4
				c-15.2,0.5-21.6,9.7-25.4,24.3c-2.7,10.6-0.9,21.3,0.5,31.9c1.9,15.4,2.5,30.8,2.8,46.3c0.2,8.8-0.9,9.6-9.6,8.6
				c-3.7-0.4-2.6,2-2.7,3.7c-0.6,10.4-1.2,11-11.8,11.8c-5.2,0.4-10.4,0.5-15.7,0.6c-4.6,0.1-5.6-1.8-3.2-5.9
				c6.5-11.1,11.6-22.9,14.2-35.6c2.5-11.8-3.1-21.3-9.1-30.3c-2.7-4.2-4.1-0.1-4.8,2.3c-2.9,9.7-2.3,19.9-3.6,29.8
				c-0.3,2.1-0.6,4.3-1.1,6.4c-0.6,2.3-2.7,4.5-4.7,3.7c-9-3.7-9.4,3.4-9.6,8.2c-0.2,5.8-2.3,6.9-7.4,6.6
				c-5.2-0.4-10.5-0.2-15.7-0.1c-3.3,0.1-3.8-1.1-2.1-3.8c2.6-4.3,5.1-8.7,7.7-12.9c10.5-16.6,14.6-34,8.6-53.5
				c-2.5-8-3.1-16.7-4.6-25c-0.6-3.3-1.3-6.3-5.4-7.2c-19.4-4.2-38.1-10.7-57.2-15.6c-14.9-3.8-30.4-2.5-45.6-3.8
				c-10.7-0.9-21.1-2.7-31-7.3c-20.9-9.8-42.3-18.8-60.7-33.1c-1-0.8-2.3-1.3-3.3-2.1c-4.3-3.1-11-3.3-12.5-9.6
				c-2.2-9.4-3.9-18.8-0.5-28.4c1.4-4.1,3.4-6.4,8.2-4.6c6.3,2.3,12.5,1.2,18.4-1.4c14.2-6.1,26.5-14.9,37.2-26.1
				c4.8-5,5.8-10.3,2.8-16.7c-2.6-5.5-4.6-11.3-6.7-17c-4.9-12.9-10.7-25.3-19-36.4c-1.1-1.5-3.3-3-2.2-5c1.1-1.9,3.6-0.9,5.4-1
				c10.6-0.3,20.9,0.7,30.2,6.7c0.4,0.2,0.8,0.5,1.2,0.6c2,0.5,4,2.7,6,0.6c1.9-1.9,0.2-4.2-0.3-6.1c-0.5-2.1-1.7-4-2.5-6
				c-0.7-2-2.2-4-0.2-6c1.9-1.9,4.2-0.9,6.1-0.2c9.4,3.7,18.5,8.3,24.8,16.3c6.9,8.8,15.1,11.3,25.3,7.6c24.6-8.9,49.9-14,76-15.5
				c15.2-0.9,30.4-2.4,45.7-2.9c30-0.9,59.3-5.5,88.4-12.7c15.7-3.9,32.1-3,47.9-6.3c42.1-8.7,84.3-4.9,126.1,0.6
				c33.8,4.5,62.5,22.2,88.9,43.3c11.2,9,17.2,21.8,23.6,34.2c3.4,6.6,5.9,13.6,15.1,15.5c6.1,1.3,7.4,9.8,3.1,16.7
				c-2.5,4-3.2,6.8,1.9,9.4c-9.1,1.7-10.6,0-8.1-8c0.8-2.5,4.3-5.9,0-7.8c-4.6-2.1-7.3,1.4-8.9,5.3c-1.9,4.7-2.8,9.6-2.9,14.7
				c-0.8,28.5-6,55.9-21.4,80.5c-4.2,6.8-4.1,13.4-0.3,20.3c4.3,7.9,8.6,15.7,15.5,21.6c5.3,4.5,7.1,10,5.4,17
				c-1.5,6.3-2.3,12.8-3.5,19.3c-2.2,12-1.6,23.8,1.9,35.5c2.1,7-0.2,11.3-7.4,13.2c-4.3,1.1-4.2,4-4,7c0.4,6-2.1,8.6-8,9.4
				c-6.2,0.8-12.3,2.9-18.6,3.7c-6.2,0.8-7.9-1.7-6.2-7.7c3.7-12.7,10.2-24.5,12.8-37.7c1.4-7,1.5-13.9-1.5-20.4
				c-2.8-5.9-5.8-11.7-8.5-17.6C710,398.8,699.4,392.8,686.1,387.2z"/>
		</g>
	</g>
</g>
</svg>
