<?xml version="1.0" encoding="utf-8"?>
<!-- Generator: Adobe Illustrator 25.4.1, SVG Export Plug-In . SVG Version: 6.00 Build 0)  -->
<svg version="1.1" xmlns="http://www.w3.org/2000/svg" xmlns:xlink="http://www.w3.org/1999/xlink" x="0px" y="0px"
	 viewBox="0 0 47.84 64" style="enable-background:new 0 0 47.84 64;" xml:space="preserve">
<style type="text/css">
	.st0{enable-background:new    ;}
	.st1{opacity:0.83;fill:#311C7C;}
	.st2{fill:#311C7C;}
	.st3{clip-path:url(#SVGID_00000146501117711558306060000015448819896245970828_);fill:#FFFFFF;}
	.st4{clip-path:url(#SVGID_00000146501117711558306060000015448819896245970828_);}
	.st5{fill:#FFFFFF;}
	.st6{fill:none;stroke:#FFFFFF;stroke-miterlimit:10;}
</style>
<g id="Layer_1">
	<g class="st0">
		<path class="st1" d="M23.92,62.5c-0.42,0-0.76-0.18-1-0.53c-3.39-4.92-6.18-8.9-8.46-12.14C3.72,34.53,1.5,31.36,1.5,23.92
			C1.5,11.56,11.56,1.5,23.92,1.5c12.36,0,22.42,10.06,22.42,22.42c0,7.44-2.22,10.61-12.9,25.84L32.3,51.4
			c-2.16,3.08-4.58,6.53-7.38,10.59C24.69,62.31,24.33,62.5,23.92,62.5z"/>
		<g>
			<path class="st2" d="M23.92,3c11.54,0,20.92,9.39,20.92,20.92c0,6.97-1.93,9.71-12.62,24.97l-0.06,0.09l-1.18,1.68
				c-2.07,2.95-4.41,6.28-7.05,10.12c-3.31-4.8-6.02-8.66-8.24-11.82l-0.05-0.08C4.93,33.64,3,30.89,3,23.92
				C3,12.39,12.39,3,23.92,3 M23.92,0C10.73,0,0,10.73,0,23.92c0,7.93,2.28,11.17,13.23,26.77c2.44,3.46,5.19,7.38,8.46,12.13
				C22.2,63.57,23.01,64,23.92,64c0.91,0,1.72-0.43,2.23-1.16c3.27-4.75,6.03-8.67,8.46-12.13c10.94-15.61,13.23-18.86,13.23-26.79
				C47.84,10.73,37.11,0,23.92,0L23.92,0z"/>
		</g>
	</g>
</g>
<g id="kip">
</g>
<g id="circle">
	<g>
		<defs>
			<circle id="SVGID_1_" cx="23.92" cy="23.92" r="17.94"/>
		</defs>
		<clipPath id="SVGID_00000145021196904942194320000006493519661007096509_">
			<use xlink:href="#SVGID_1_"  style="overflow:visible;"/>
		</clipPath>
		
			<circle style="clip-path:url(#SVGID_00000145021196904942194320000006493519661007096509_);fill:#FFFFFF;" cx="20.47" cy="34.9" r="3.85"/>
		<g style="clip-path:url(#SVGID_00000145021196904942194320000006493519661007096509_);">
			<path class="st5" d="M38.25,41.86h-1.6v-2.31h1.55L38.25,41.86z M35.88,41.86h-1.55v-2.31h1.55V41.86z M33.56,41.86h-1.55v-2.31
				h1.55V41.86z M31.24,41.86h-1.55v-2.31h1.55V41.86z M28.92,41.86h-1.55v-2.31h1.55V41.86z M26.6,41.86h-1.55v-2.31h1.55V41.86z
				 M24.28,41.86h-1.55v-2.31h1.55V41.86z M21.97,41.86h-1.5l-0.05-2.31h1.55V41.86z M19.49,41.79c-0.61-0.09-1.21-0.25-1.78-0.5
				l0.91-2.12c0.38,0.16,0.78,0.28,1.19,0.33L19.49,41.79z M39.18,41.79l-0.33-2.29c0.41-0.06,0.81-0.17,1.19-0.33l0.92,2.12
				C40.39,41.54,39.79,41.7,39.18,41.79z M16.88,40.87c-0.53-0.32-1.01-0.71-1.44-1.15l1.67-1.6c0.29,0.3,0.61,0.56,0.96,0.77
				L16.88,40.87z M41.78,40.87l-1.2-1.98c0.35-0.21,0.68-0.47,0.96-0.77l1.67,1.6C42.8,40.16,42.31,40.55,41.78,40.87z M14.85,39.01
				c-0.37-0.5-0.66-1.05-0.88-1.62l2.16-0.82c0.15,0.38,0.35,0.75,0.59,1.08L14.85,39.01z M43.82,39l-1.87-1.36
				c0.24-0.33,0.44-0.7,0.59-1.09l2.16,0.82C44.48,37.95,44.18,38.5,43.82,39z M13.69,36.5c-0.12-0.52-0.18-1.06-0.18-1.59
				c0-0.08,0-0.16,0-0.24l2.31,0.08l0,0.16c0,0.36,0.04,0.72,0.12,1.07L13.69,36.5z M44.97,36.49l-2.25-0.52
				c0.08-0.35,0.12-0.7,0.12-1.06l0-0.17l2.31-0.08c0,0.08,0,0.16,0,0.25C45.15,35.44,45.09,35.97,44.97,36.49z M15.89,34.12
				l-2.28-0.39c0.1-0.61,0.29-1.21,0.55-1.77l2.1,0.97C16.08,33.32,15.95,33.72,15.89,34.12z M42.77,34.12
				c-0.07-0.41-0.19-0.8-0.37-1.18l2.1-0.98c0.26,0.56,0.45,1.15,0.55,1.76L42.77,34.12z M16.55,32.41l-1.95-1.24
				c0.33-0.52,0.73-0.99,1.19-1.41l1.55,1.71C17.04,31.74,16.77,32.06,16.55,32.41z M42.11,32.4c-0.22-0.35-0.49-0.66-0.8-0.94
				l1.55-1.71c0.46,0.42,0.86,0.89,1.19,1.41L42.11,32.4z M17.83,31.08l-1.31-1.9c0.51-0.35,1.06-0.63,1.65-0.84l0.77,2.18
				C18.54,30.65,18.17,30.84,17.83,31.08z M40.83,31.08c-0.34-0.23-0.71-0.42-1.1-0.56l0.76-2.18c0.58,0.2,1.14,0.49,1.65,0.84
				L40.83,31.08z M19.52,30.35l-0.47-2.26c0.46-0.1,0.94-0.15,1.41-0.14h0.36v2.31h-0.36c0,0,0,0,0,0
				C20.15,30.26,19.83,30.29,19.52,30.35z M39.13,30.35c-0.31-0.06-0.62-0.09-0.94-0.09h-0.37v-2.31h0.37c0.47,0,0.95,0.05,1.4,0.14
				L39.13,30.35z M37.05,30.26h-1.55v-2.31h1.55V30.26z M34.74,30.26h-1.55v-2.31h1.55V30.26z M32.42,30.26h-1.55v-2.31h1.55V30.26z
				 M30.1,30.26h-1.55v-2.31h1.55V30.26z M27.78,30.26h-1.55v-2.31h1.55V30.26z M25.46,30.26h-1.55v-2.31h1.55V30.26z M23.14,30.26
				H21.6v-2.31h1.55V30.26z"/>
		</g>
		<g style="clip-path:url(#SVGID_00000145021196904942194320000006493519661007096509_);">
			<path class="st5" d="M40.57,22.77c0.12,0.36-0.04,0.56-0.2,0.78c-0.45,0.63-0.76,1.33-1.01,2.06c-0.04,0.12-0.08,0.24-0.14,0.35
				c-0.07,0.15-0.19,0.2-0.33,0.08c-0.26-0.22-0.39-0.07-0.51,0.15c-0.03,0.07-0.06,0.14-0.1,0.2c-0.1,0.17-0.07,0.47-0.27,0.5
				c-0.38,0.05-0.78,0.08-1.15-0.09c-0.19-0.08-0.11-0.25-0.03-0.38c0.18-0.31,0.43-0.57,0.67-0.84c0.14-0.16,0.3-0.33,0.44-0.5
				c0.51-0.62,0.77-1.73-0.01-2.6c-0.29-0.32-0.55-0.67-0.59-1.12c-0.02-0.25-0.2-0.24-0.38-0.18c-0.35,0.12-0.69,0.27-1.03,0.4
				c-0.34,0.13-0.7,0.24-1.04,0.35c-0.61,0.19-1.22,0.18-1.83-0.03c-0.44-0.15-0.9-0.22-1.36-0.22c-0.98,0-1.96-0.01-2.94,0.02
				c-0.73,0.02-1.04,0.47-1.23,1.17c-0.13,0.51-0.04,1.03,0.02,1.54c0.09,0.74,0.12,1.49,0.14,2.24c0.01,0.42-0.04,0.46-0.46,0.42
				c-0.18-0.02-0.13,0.1-0.13,0.18c-0.03,0.5-0.06,0.53-0.57,0.57c-0.25,0.02-0.5,0.02-0.76,0.03c-0.22,0-0.27-0.09-0.15-0.28
				c0.31-0.54,0.56-1.11,0.69-1.72c0.12-0.57-0.15-1.03-0.44-1.46c-0.13-0.2-0.2,0-0.23,0.11c-0.14,0.47-0.11,0.96-0.17,1.44
				c-0.01,0.1-0.03,0.21-0.05,0.31c-0.03,0.11-0.13,0.22-0.23,0.18c-0.43-0.18-0.45,0.16-0.46,0.4c-0.01,0.28-0.11,0.33-0.36,0.32
				c-0.25-0.02-0.51-0.01-0.76,0c-0.16,0-0.18-0.05-0.1-0.18c0.13-0.21,0.25-0.42,0.37-0.62c0.51-0.8,0.7-1.64,0.42-2.58
				c-0.12-0.39-0.15-0.81-0.22-1.21c-0.03-0.16-0.06-0.3-0.26-0.35c-0.94-0.2-1.84-0.52-2.76-0.75c-0.72-0.18-1.47-0.12-2.2-0.18
				c-0.52-0.04-1.02-0.13-1.5-0.35c-1.01-0.47-2.04-0.91-2.93-1.6c-0.05-0.04-0.11-0.06-0.16-0.1c-0.21-0.15-0.53-0.16-0.6-0.46
				c-0.11-0.45-0.19-0.91-0.02-1.37c0.07-0.2,0.16-0.31,0.4-0.22c0.3,0.11,0.6,0.06,0.89-0.07c0.69-0.29,1.28-0.72,1.8-1.26
				c0.23-0.24,0.28-0.5,0.14-0.81c-0.13-0.27-0.22-0.55-0.32-0.82c-0.24-0.62-0.52-1.22-0.92-1.76c-0.05-0.07-0.16-0.14-0.11-0.24
				c0.05-0.09,0.17-0.04,0.26-0.05c0.51-0.01,1.01,0.03,1.46,0.32c0.02,0.01,0.04,0.02,0.06,0.03c0.1,0.02,0.19,0.13,0.29,0.03
				c0.09-0.09,0.01-0.2-0.01-0.29c-0.02-0.1-0.08-0.19-0.12-0.29c-0.03-0.1-0.11-0.19-0.01-0.29c0.09-0.09,0.2-0.04,0.29-0.01
				c0.45,0.18,0.89,0.4,1.2,0.79c0.33,0.42,0.73,0.55,1.22,0.37c1.19-0.43,2.41-0.68,3.67-0.75c0.73-0.04,1.47-0.12,2.21-0.14
				c1.45-0.04,2.86-0.27,4.27-0.61c0.76-0.19,1.55-0.14,2.31-0.3c2.03-0.42,4.07-0.24,6.09,0.03c1.63,0.22,3.02,1.07,4.29,2.09
				c0.54,0.43,0.83,1.05,1.14,1.65c0.16,0.32,0.28,0.66,0.73,0.75c0.29,0.06,0.36,0.47,0.15,0.81c-0.12,0.19-0.15,0.33,0.09,0.45
				c-0.44,0.08-0.51,0-0.39-0.39c0.04-0.12,0.21-0.28,0-0.38c-0.22-0.1-0.35,0.07-0.43,0.26c-0.09,0.23-0.14,0.46-0.14,0.71
				c-0.04,1.38-0.29,2.7-1.03,3.89c-0.2,0.33-0.2,0.65-0.01,0.98c0.21,0.38,0.42,0.76,0.75,1.04c0.26,0.22,0.34,0.48,0.26,0.82
				c-0.07,0.3-0.11,0.62-0.17,0.93c-0.11,0.58-0.08,1.15,0.09,1.71c0.1,0.34-0.01,0.55-0.36,0.64c-0.21,0.05-0.2,0.19-0.19,0.34
				c0.02,0.29-0.1,0.42-0.39,0.45c-0.3,0.04-0.59,0.14-0.9,0.18c-0.3,0.04-0.38-0.08-0.3-0.37c0.18-0.61,0.49-1.18,0.62-1.82
				c0.07-0.34,0.07-0.67-0.07-0.99c-0.14-0.28-0.28-0.56-0.41-0.85C41.73,23.33,41.22,23.04,40.57,22.77z"/>
		</g>
	</g>
</g>
<g id="circle_outline">
	<circle class="st6" cx="23.92" cy="23.92" r="17.94"/>
</g>
</svg>
