<?xml version="1.0" encoding="utf-8"?>
<!-- Generator: Adobe Illustrator 25.4.1, SVG Export Plug-In . SVG Version: 6.00 Build 0)  -->
<svg version="1.1" id="Layer_1" xmlns="http://www.w3.org/2000/svg" xmlns:xlink="http://www.w3.org/1999/xlink" x="0px" y="0px"
	 viewBox="0 0 48 64" style="enable-background:new 0 0 48 64;" xml:space="preserve">
<style type="text/css">
	.st0{enable-background:new    ;}
	.st1{opacity:0.83;fill:#881640;enable-background:new    ;}
	.st2{fill:#881640;}
	.st3{clip-path:url(#SVGID_00000068666248694692205180000011056260613316089226_);}
	.st4{fill:#FFFFFF;}
	.st5{fill:none;stroke:#FFFFFF;stroke-miterlimit:10;}
</style>
<g id="Layer_1_00000163068170706409116990000005655645521571586945_">
	<g class="st0">
		<path class="st1" d="M24,62.5c-0.42,0-0.76-0.18-1-0.53c-3.39-4.92-6.18-8.9-8.46-12.14C3.8,34.53,1.58,31.36,1.58,23.92
			C1.58,11.56,11.64,1.5,24,1.5s22.42,10.06,22.42,22.42c0,7.44-2.22,10.61-12.9,25.84l-1.14,1.64c-2.16,3.08-4.58,6.53-7.38,10.59
			C24.77,62.31,24.41,62.5,24,62.5z"/>
		<g>
			<path class="st2" d="M24,3c11.54,0,20.92,9.39,20.92,20.92c0,6.97-1.93,9.71-12.62,24.97l-0.06,0.09l-1.18,1.68
				c-2.07,2.95-4.41,6.28-7.05,10.12c-3.31-4.8-6.02-8.66-8.24-11.82l-0.05-0.08C5.01,33.64,3.08,30.89,3.08,23.92
				C3.08,12.39,12.47,3,24,3 M24,0C10.81,0,0.08,10.73,0.08,23.92c0,7.93,2.28,11.17,13.23,26.77c2.44,3.46,5.19,7.38,8.46,12.13
				C22.28,63.57,23.09,64,24,64s1.72-0.43,2.23-1.16c3.27-4.75,6.03-8.67,8.46-12.13C45.63,35.1,47.92,31.85,47.92,23.92
				C47.92,10.73,37.19,0,24,0L24,0z"/>
		</g>
	</g>
</g>
<g id="kip">
</g>
<g id="circle">
	<g>
		<g>
			<defs>
				<circle id="SVGID_1_" cx="24" cy="23.92" r="17.94"/>
			</defs>
			<clipPath id="SVGID_00000004507804213947256070000004109121801552766606_">
				<use xlink:href="#SVGID_1_"  style="overflow:visible;"/>
			</clipPath>
			<g style="clip-path:url(#SVGID_00000004507804213947256070000004109121801552766606_);">
				<path class="st4" d="M37.77,60.5c0.38,0.52,0.98,0.81,1.29,1.4c-0.54,0.3-1,0.1-1.36-0.17c-1.65-1.29-3.34-1.06-5.08-0.23
					c-0.92,0.44-1.85,0.85-2.8,1.24c-0.3,0.13-0.58,0.37-1.02,0.25c0.44-0.66,1.17-0.92,1.75-1.5c-1.19-0.17-2.28,0.18-3.51,0.03
					c0.44-0.52,0.93-0.62,1.41-0.71c1.4-0.28,2.76-0.69,4.07-1.29c1.12-0.51,1.88-1.26,2.19-2.5c0.3-1.2,0.75-2.38,1.16-3.65
					c-2.13-0.2-3.35-1.5-4.31-3.17c-0.67-1.2-1.43-2.34-2.58-3.2c-0.72-0.55-1.54-0.88-2.38-1.13c-2.69-0.83-4.69-2.53-6.28-4.81
					c-1.75-2.53-2.8-5.34-3.49-8.31c-0.21-0.92-0.41-1.87-0.55-2.8c-0.28-1.89-0.01-3.72,0.65-5.51c0.33-0.86,0.66-1.71,0.88-2.6
					c0.07-0.3,0.13-0.59,0.11-0.74c-0.07-0.25-0.11-0.27-0.2-0.24c-1.13,0.34-1.61-0.04-1.47-1.22c0.07-0.54,0.24-1.05,0.37-1.58
					c-0.49-0.14-0.49-0.14-2.52,0.66c0.18-1.57,0.81-2.87,2.08-3.92c-0.41-0.42-0.71-0.86-0.23-1.4c-0.33-0.47-0.59-0.93-0.07-1.44
					c0.27-0.27-0.01-0.68,0.1-0.83c0.25-0.4,0.55-0.42,0.79-0.54c0.28-1.05,0.37-1.1,1.4-0.95c0.33-0.42,0.72-0.72,1.29-0.35
					c0.11,0.08,0.24,0.17,0.37,0.08c0.65-0.4,1.2,0.34,1.84,0.18c0.18-0.04,0.42,0.16,0.45,0.35c0.07,0.4,0.34,0.62,0.55,0.92
					c0.4,0.54-0.01,0.93-0.48,1.29c2.97,0.69,5.16,2.38,6.97,4.62c0.79,0.99,1.44,2.06,2.08,3.14c0.66,1.13,1.54,2.06,2.62,2.81
					c1.51,1.05,3.24,1.27,4.98,1.1c2.36-0.23,4.72-0.49,7.08-0.89c3.76-0.62,6.77-2.53,9.33-5.24c0.58-0.62,1.09-1.3,1.58-2.01
					c0.74-1.03,1.58-1.95,2.7-2.59c0.51-0.3,1.06-0.47,1.64-0.49c0.9-0.04,1.1,0.14,1.2,1.07c0.01,0.1,0.04,0.18,0.07,0.28
					c1.61-0.04,2.32,0.17,2.15,2.15c1.81,1.02,1.85,1.19,0.85,2.6c1.39,2.35,0.37,2.79-1.36,3.21c0.18,0.17,0.34,0.31,0.49,0.45
					c0.99,0.83,1.1,1.75,0.25,2.73c-0.35,0.41-0.79,0.75-1.23,1.16c0.51,0.85,1.13,1.71,0.71,2.79c-0.4,1-1.36,1.39-2.21,1.88
					c0.13,1.27,0.35,2.59-1.22,3.24c-0.16,1.47-0.95,2.29-2.5,2.29c-0.3,0.88-0.38,1.82-1,2.53c-0.65,0.75-1.51,1-2.47,1.03
					c-0.28,0.72,0.44,1.74-0.78,2.15c0.28,0.76,0.06,1.39-0.47,1.97c-0.62,0.69-0.95,1.57-1.34,2.39c-0.76,1.58-1.74,2.98-3.24,3.99
					c-0.45,0.31-0.93,0.57-1.44,0.76c-1.43,0.54-2.86,1.12-4.34,1.47c-1.22,0.3-1.97,0.93-2.23,2.21c-0.21,1.03-0.52,2.04-0.64,3.1
					c-0.08,0.76,0.01,0.93,0.75,1.22c0.44,0.17,0.9,0.3,1.34,0.48c0.34,0.14,0.71,0.3,0.64,0.81c-0.55,0.18-1-0.11-1.48-0.23
					c-0.89-0.21-1.75-0.57-2.7-0.34C38.57,60.03,38.16,60.14,37.77,60.5z M38.16,53.47c-0.34,0.66-0.71,1.29-0.99,1.94
					c-0.38,0.9-0.81,1.78-1.03,2.76c-0.11,0.49-0.01,0.88,0.52,1.02c1.89-0.69,3.17-3.18,2.9-5.77
					C39.13,53.43,38.69,53.44,38.16,53.47z"/>
			</g>
		</g>
	</g>
</g>
<g id="circle_outline">
	<circle class="st5" cx="24" cy="23.92" r="17.94"/>
</g>
</svg>
