<?xml version="1.0" encoding="utf-8"?>
<!-- Generator: Adobe Illustrator 25.4.1, SVG Export Plug-In . SVG Version: 6.00 Build 0)  -->
<svg version="1.1" id="Layer_1" xmlns="http://www.w3.org/2000/svg" xmlns:xlink="http://www.w3.org/1999/xlink" x="0px" y="0px"
	 viewBox="0 0 32 32" style="enable-background:new 0 0 32 32;" xml:space="preserve">
<style type="text/css">
	.st0{opacity:0.7;fill:#881640;enable-background:new    ;}
	.st1{fill:#881640;}
	.st2{fill:#FFFFFF;}
	.st3{clip-path:url(#SVGID_00000124876751461434597800000004279644599242279075_);}
</style>
<g id="Layer_1_00000127028552430200292000000002962780530734004637_">
	<g>
		<circle class="st0" cx="16" cy="16" r="15.5"/>
		<path class="st1" d="M16,1c8.27,0,15,6.73,15,15s-6.73,15-15,15S1,24.27,1,16S7.73,1,16,1 M16,0C7.16,0,0,7.16,0,16s7.16,16,16,16
			s16-7.16,16-16S24.84,0,16,0L16,0z"/>
	</g>
</g>
<g id="Layer_2_00000092458842996212282140000015880564101375341205_">
	<g>
		<path class="st2" d="M16,4c6.62,0,12,5.38,12,12s-5.38,12-12,12S4,22.62,4,16S9.38,4,16,4 M16,3C8.82,3,3,8.82,3,16s5.82,13,13,13
			s13-5.82,13-13S23.18,3,16,3L16,3z"/>
	</g>
</g>
<g id="Layer_4">
</g>
<g id="Layer_2_copy">
	<g>
		<g>
			<defs>
				<circle id="SVGID_1_" cx="16" cy="16" r="13"/>
			</defs>
			<clipPath id="SVGID_00000129885046013645769000000015672158284483226785_">
				<use xlink:href="#SVGID_1_"  style="overflow:visible;"/>
			</clipPath>
			<g style="clip-path:url(#SVGID_00000129885046013645769000000015672158284483226785_);">
				<g>
					<path class="st2" d="M15.16,12.99c0.02,0.99,0.3,1.86,1.11,2.5c0.64,0.5,1.39,0.65,2.18,0.7c0.06,0.01,0.14-0.03,0.21,0.06
						c-0.38,0.19-0.76,0.3-1.16,0.39c-0.12,0.02-0.34-0.02-0.35,0.09c-0.02,0.15,0.19,0.16,0.3,0.22c0.27,0.15,0.37,0.35,0.24,0.56
						c-0.13,0.22-0.45,0.28-0.67,0.12c-0.07-0.05-0.14-0.11-0.21-0.16c-0.42-0.31-0.75-0.32-1.17-0.01
						c-0.12,0.09-0.23,0.18-0.37,0.23c-0.22,0.09-0.5-0.01-0.58-0.2c-0.08-0.2,0.02-0.43,0.25-0.53c0.24-0.11,0.5-0.19,0.77-0.23
						c0.07-0.01,0.18,0.01,0.19-0.07c0.01-0.1-0.11-0.08-0.18-0.11c-0.96-0.29-1.82-0.78-2.52-1.5c-0.7-0.72-1.11-1.57-1.06-2.6
						c0.02-0.57,0.19-1.1,0.35-1.63c0.21-0.65,0.24-1.24-0.39-1.72c-0.2-0.15-0.37-0.2-0.59-0.16c-0.08,0.01-0.16,0.04-0.23,0.07
						c-0.14,0.06-0.16,0-0.15-0.12c0.02-0.27,0.15-0.48,0.33-0.67c0.09-0.1,0.15-0.2,0.17-0.34c0.04-0.32,0.19-0.62,0.42-0.85
						c0.09-0.09,0.12-0.17,0.07-0.3c-0.14-0.42,0.21-0.8,0.63-0.71c0.1,0.02,0.16,0.02,0.21-0.08c0.29-0.54,0.86-0.56,1.18-0.05
						c0.05,0.07,0.09,0.11,0.19,0.11c0.39-0.02,0.71,0.18,0.81,0.51c0.12,0.37-0.01,0.69-0.39,0.92c-0.08,0.05-0.11,0.09-0.07,0.19
						c0.24,0.5,0.46,1.02,0.71,1.52c0.45,0.9,1.14,1.45,2.19,1.47c0.91,0.02,1.8-0.07,2.67-0.34c0.65-0.2,1.26-0.48,1.77-0.95
						c0.09-0.08,0.14-0.2,0.25-0.25c0.01,0.02,0.02,0.04,0.02,0.05c-0.09,0.73-0.3,1.4-0.85,1.93c-0.04,0.04-0.09,0.06-0.07,0.12
						c0.02,0.05,0.07,0.03,0.11,0.04c0.18,0.04,0.34,0.12,0.48,0.24c0.1,0.08,0.12,0.15-0.04,0.18c-0.17,0.04-0.33,0.11-0.46,0.24
						c-0.08,0.08-0.11,0.13,0.03,0.18c0.19,0.07,0.37,0.17,0.5,0.33c0.06,0.07,0.09,0.12-0.02,0.16c-0.39,0.12-0.6,0.44-0.81,0.76
						c-0.26,0.4-0.52,0.8-0.86,1.15c-0.95,0.97-2.85,0.95-3.86,0.29c-0.68-0.45-1.06-1.1-1.26-1.93
						C15.18,12.88,15.15,12.93,15.16,12.99z M13.18,7.79c0-0.15-0.15-0.29-0.3-0.29c-0.15,0-0.29,0.15-0.29,0.3
						c0,0.16,0.14,0.29,0.3,0.29C13.04,8.08,13.18,7.95,13.18,7.79z"/>
				</g>
				<circle class="st2" cx="10.2" cy="23.1" r="2.72"/>
				<g>
					<path class="st2" d="M22.74,28h-1.13v-1.63h1.09L22.74,28z M21.06,28h-1.09v-1.63h1.09V28z M19.43,28h-1.09v-1.63h1.09V28z
						 M17.79,28h-1.09v-1.63h1.09V28z M16.16,28h-1.09v-1.63h1.09V28z M14.53,28h-1.09v-1.63h1.09V28z M12.9,28h-1.09v-1.63h1.09V28
						z M11.26,28H10.2l-0.03-1.63h1.09V28z M9.51,27.95c-0.43-0.06-0.85-0.18-1.26-0.35l0.65-1.5c0.27,0.12,0.55,0.19,0.84,0.24
						L9.51,27.95z M23.4,27.95l-0.23-1.62c0.29-0.04,0.57-0.12,0.83-0.24l0.65,1.5C24.25,27.77,23.82,27.89,23.4,27.95z M7.68,27.3
						c-0.37-0.22-0.71-0.5-1.02-0.81l1.17-1.13c0.21,0.21,0.43,0.39,0.68,0.54L7.68,27.3z M25.23,27.3l-0.85-1.39
						c0.25-0.15,0.48-0.34,0.68-0.55l1.18,1.13C25.94,26.8,25.6,27.07,25.23,27.3z M6.24,25.99c-0.25-0.35-0.47-0.74-0.62-1.14
						l1.52-0.58c0.11,0.27,0.24,0.53,0.42,0.76L6.24,25.99z M26.67,25.99l-1.32-0.96c0.17-0.24,0.31-0.49,0.42-0.76l1.52,0.58
						C27.13,25.25,26.92,25.63,26.67,25.99z M5.43,24.22C5.34,23.85,5.3,23.47,5.3,23.1c0-0.06,0-0.11,0-0.17l1.63,0.06v0.12
						c0,0.25,0.03,0.5,0.09,0.75L5.43,24.22z M27.47,24.21l-1.59-0.37c0.06-0.24,0.09-0.5,0.09-0.75v-0.12l1.63-0.06
						c0,0.06,0.01,0.12,0.01,0.17C27.6,23.47,27.56,23.85,27.47,24.21z M6.97,22.55l-1.6-0.27c0.07-0.43,0.21-0.85,0.39-1.24
						l1.48,0.69C7.11,21.98,7.02,22.26,6.97,22.55z M25.93,22.54c-0.05-0.29-0.14-0.57-0.26-0.83l1.48-0.69
						c0.19,0.39,0.32,0.81,0.39,1.24L25.93,22.54z M7.44,21.34l-1.37-0.88c0.24-0.37,0.52-0.7,0.84-0.99L8,20.67
						C7.79,20.86,7.6,21.09,7.44,21.34z M25.46,21.33c-0.16-0.24-0.35-0.47-0.56-0.67l1.09-1.21c0.32,0.29,0.6,0.63,0.84,0.99
						L25.46,21.33z M8.35,20.4l-0.93-1.34c0.36-0.25,0.75-0.45,1.16-0.59L9.12,20C8.84,20.1,8.58,20.23,8.35,20.4z M24.56,20.4
						c-0.24-0.17-0.5-0.3-0.78-0.39l0.54-1.54c0.41,0.14,0.8,0.34,1.16,0.59L24.56,20.4z M9.54,19.89l-0.33-1.6
						c0.33-0.07,0.67-0.11,0.99-0.1h0.25v1.63H10.2l0,0C9.98,19.82,9.76,19.84,9.54,19.89z M23.36,19.89
						c-0.22-0.04-0.44-0.07-0.66-0.07h-0.25v-1.63h0.25c0.34,0,0.67,0.03,0.99,0.1L23.36,19.89z M21.9,19.82h-1.09v-1.63h1.09V19.82
						z M20.26,19.82h-1.09v-1.63h1.09V19.82z M18.63,19.82h-1.09v-1.63h1.09V19.82z M16.99,19.82H15.9v-1.63h1.09V19.82z
						 M15.36,19.82h-1.09v-1.63h1.09V19.82z M13.72,19.82h-1.09v-1.63h1.09V19.82z M12.09,19.82h-1.09v-1.63h1.09V19.82z"/>
				</g>
			</g>
		</g>
	</g>
</g>
</svg>
