<?xml version="1.0" encoding="utf-8"?>
<!-- Generator: Adobe Illustrator 25.4.1, SVG Export Plug-In . SVG Version: 6.00 Build 0)  -->
<svg version="1.1" id="Layer_1" xmlns="http://www.w3.org/2000/svg" xmlns:xlink="http://www.w3.org/1999/xlink" x="0px" y="0px"
	 viewBox="0 0 32 32" style="enable-background:new 0 0 32 32;" xml:space="preserve">
<style type="text/css">
	.st0{opacity:0.7;fill:#8BB720;enable-background:new    ;}
	.st1{fill:#8BB720;}
	.st2{fill:#FFFFFF;}
	.st3{clip-path:url(#SVGID_00000047746789394803979110000015994337501164051861_);}
</style>
<g id="Layer_1_00000124127519260791493780000002158707174710471345_">
	<g>
		<circle class="st0" cx="16" cy="16" r="15.5"/>
		<path class="st1" d="M16,1c8.27,0,15,6.73,15,15s-6.73,15-15,15S1,24.27,1,16S7.73,1,16,1 M16,0C7.16,0,0,7.16,0,16s7.16,16,16,16
			s16-7.16,16-16S24.84,0,16,0L16,0z"/>
	</g>
</g>
<g id="Layer_2_00000001625921318744836030000011604728484062222224_">
	<g>
		<path class="st2" d="M16,4c6.62,0,12,5.38,12,12s-5.38,12-12,12S4,22.62,4,16S9.38,4,16,4 M16,3C8.82,3,3,8.82,3,16s5.82,13,13,13
			s13-5.82,13-13S23.18,3,16,3L16,3z"/>
	</g>
</g>
<g id="Layer_4">
</g>
<g id="Layer_2_copy">
	<g>
		<g>
			<defs>
				<circle id="SVGID_1_" cx="16" cy="16" r="13"/>
			</defs>
			<clipPath id="SVGID_00000049204407190688166650000014928477455130998152_">
				<use xlink:href="#SVGID_1_"  style="overflow:visible;"/>
			</clipPath>
			<g style="clip-path:url(#SVGID_00000049204407190688166650000014928477455130998152_);">
				<path class="st2" d="M17.91,37.49c-0.29-0.13-0.57-0.39-0.8-0.79c-0.47-0.97-0.79-1.84-0.93-2.58l-0.22-0.72l-0.29,0.14
					c-0.43,0.34-1.65,0.79-3.67,1.36l-0.36,0.07L12,35.05c0.09,0.05,0.25,0.08,0.47,0.08h0.61c0.53,0,1.09,0.07,1.67,0.2
					c0.58,0.14,0.98,0.29,1.22,0.43c0.47,0.67,0.7,1.18,0.7,1.51c0,0.22-0.04,0.33-0.13,0.33c-1.64,0-2.94,0.02-3.88,0.04
					c-0.96,0.03-2.41,0.04-4.39,0.04c-0.76,0-1.38-0.04-1.83-0.11c-0.45-0.08-1.09-0.25-1.9-0.53l-0.86-0.29L2.89,37.1
					c-0.81,0.41-1.56,0.61-2.22,0.61c-0.29,0-0.55-0.04-0.8-0.11c-0.86-0.24-1.51-0.76-1.94-1.57c-0.14-0.26-0.22-0.55-0.22-0.86
					s0.05-0.57,0.14-0.76c0.24-0.46,0.74-0.84,1.51-1.15l-0.17-0.58c-0.34-1.15-0.52-2.38-0.52-3.64c0-2.05,0.61-3.92,1.81-5.61
					c0.34-0.48,0.79-1,1.36-1.55c0.58-0.55,1.1-1,1.57-1.33c1.24-0.86,2.29-1.34,3.11-1.43c0.83-0.09,1.4-0.13,1.74-0.13
					c1.15,0,2.51,0.19,4.08,0.55c0.52,0.11,1.05,0.16,1.57,0.16c0.59,0,1.03-0.11,1.34-0.3c0.08-0.04,0.11-0.11,0.11-0.2
					c0.11-0.13,0.19-0.47,0.25-1.02l0.09-0.85c0-0.05-0.12-0.09-0.36-0.11c-0.24-0.03-0.52-0.05-0.85-0.11
					c-4.03-0.52-6.5-1.42-7.41-2.66c-0.12-0.2-0.17-0.34-0.17-0.41s0.16-0.09,0.47-0.09c0.97,0,2.31-0.14,4.01-0.42
					c0.67-0.11,1.24-0.16,1.7-0.16c0.7,0,1.56,0.22,2.55,0.65c0.09,0.04,0.17,0.09,0.22,0.14c0.69,0.3,1.09,0.46,1.19,0.46
					c0.07,0,0.2-0.08,0.46-0.24l0.42-0.45c-0.47-0.61-0.92-1.24-1.33-1.9c-0.41-0.65-0.74-1.17-0.97-1.55
					c-0.57-1.14-0.91-2.07-1.02-2.81c-0.07-0.34-0.09-0.69-0.09-1.02c0-0.69,0.11-1.24,0.31-1.64h0.08c0.08,0,0.22,0.09,0.46,0.29
					c0.12,0.09,0.29,0.24,0.53,0.43c0.24,0.2,0.5,0.46,0.79,0.8c1.5,1.29,2.36,2.14,2.62,2.55c0.17,0.26,0.34,0.57,0.53,0.89
					c0.53,1.15,0.89,2.14,1.09,2.94c0,0.28,0.05,0.43,0.14,0.47c0.05,0.03,0.11,0.05,0.14,0.11c1.56,0.36,2.72,1.02,3.46,1.94
					c0.19,0.24,0.38,0.5,0.57,0.79c0.38,0.61,0.67,1.02,0.86,1.24c0.52,0.59,0.78,1,0.78,1.24c0,0.11-0.04,0.2-0.13,0.29
					c0,0.04-0.04,0.12-0.11,0.25c-0.08,0.12-0.13,0.25-0.17,0.41c-0.11,0.39-0.25,0.69-0.45,0.91c-0.19,0.2-0.47,0.42-0.86,0.61
					c-0.36,0.14-0.69,0.36-1.02,0.64c-0.19,0.29-0.28,0.61-0.3,1.02l-0.03,0.61c0,0.33,0.02,0.72,0.05,1.19
					c0,0.72-0.02,1.14-0.03,1.27c-0.03,0.12-0.08,0.25-0.19,0.38c-0.33,0.86-0.83,1.7-1.5,2.55c-0.76,0.94-1.57,1.7-2.45,2.27
					c0,0.81-0.04,1.53-0.11,2.17c-0.07,0.63-0.13,1.22-0.19,1.79c-0.05,0.11-0.08,0.2-0.08,0.3s0.03,0.16,0.08,0.2
					c0,0.05,0.05,0.09,0.14,0.12s0.19,0.07,0.29,0.11c0.26,0.09,0.48,0.14,0.65,0.14c0.38,0.19,0.57,0.52,0.57,1.02
					c0,0.43-0.09,0.69-0.29,0.8c-0.19,0.11-0.52,0.16-0.96,0.16C18.98,37.8,18.32,37.7,17.91,37.49z"/>
			</g>
		</g>
	</g>
</g>
</svg>
