<?xml version="1.0" encoding="utf-8"?>
<!-- Generator: Adobe Illustrator 25.4.1, SVG Export Plug-In . SVG Version: 6.00 Build 0)  -->
<svg version="1.1" id="Layer_1" xmlns="http://www.w3.org/2000/svg" xmlns:xlink="http://www.w3.org/1999/xlink" x="0px" y="0px"
	 viewBox="0 0 32 32" style="enable-background:new 0 0 32 32;" xml:space="preserve">
<style type="text/css">
	.st0{opacity:0.7;fill:#881640;enable-background:new    ;}
	.st1{fill:#881640;}
	.st2{fill:#FFFFFF;}
	.st3{clip-path:url(#SVGID_00000082334022760537559960000009850017119932113292_);}
</style>
<g id="Layer_1_00000127028552430200292000000002962780530734004637_">
	<g>
		<circle class="st0" cx="16" cy="16" r="15.5"/>
		<path class="st1" d="M16,1c8.27,0,15,6.73,15,15s-6.73,15-15,15S1,24.27,1,16S7.73,1,16,1 M16,0C7.16,0,0,7.16,0,16s7.16,16,16,16
			s16-7.16,16-16S24.84,0,16,0L16,0z"/>
	</g>
</g>
<g id="Layer_2_00000092458842996212282140000015880564101375341205_">
	<g>
		<path class="st2" d="M16,4c6.62,0,12,5.38,12,12s-5.38,12-12,12S4,22.62,4,16S9.38,4,16,4 M16,3C8.82,3,3,8.82,3,16s5.82,13,13,13
			s13-5.82,13-13S23.18,3,16,3L16,3z"/>
	</g>
</g>
<g id="Layer_4">
</g>
<g id="Layer_2_copy">
	<g>
		<g>
			<defs>
				<circle id="SVGID_1_" cx="16" cy="16" r="13"/>
			</defs>
			<clipPath id="SVGID_00000057844326591756750700000000241551501321646990_">
				<use xlink:href="#SVGID_1_"  style="overflow:visible;"/>
			</clipPath>
			<g style="clip-path:url(#SVGID_00000057844326591756750700000000241551501321646990_);">
				<g>
					<path class="st2" d="M13.11,22.71c0.1,0.14,0.28,0.23,0.36,0.39c-0.15,0.08-0.28,0.03-0.38-0.05c-0.46-0.36-0.93-0.3-1.42-0.06
						c-0.25,0.12-0.52,0.23-0.78,0.34c-0.08,0.03-0.17,0.1-0.28,0.07c0.12-0.19,0.33-0.25,0.49-0.42c-0.33-0.05-0.63,0.05-0.98,0.01
						c0.12-0.14,0.26-0.17,0.39-0.2c0.39-0.08,0.77-0.19,1.13-0.36c0.31-0.14,0.52-0.35,0.61-0.7c0.08-0.34,0.21-0.66,0.32-1.02
						c-0.6-0.06-0.94-0.42-1.2-0.89c-0.19-0.34-0.41-0.66-0.73-0.9c-0.2-0.15-0.43-0.25-0.66-0.32c-0.75-0.23-1.31-0.71-1.75-1.34
						c-0.49-0.71-0.78-1.49-0.98-2.32c-0.06-0.25-0.12-0.52-0.15-0.78c-0.08-0.53-0.01-1.04,0.18-1.54
						c0.09-0.24,0.19-0.47,0.25-0.73c0.02-0.08,0.03-0.17,0.03-0.21c-0.02-0.07-0.03-0.08-0.06-0.07c-0.32,0.1-0.45-0.01-0.41-0.34
						c0.02-0.15,0.07-0.29,0.1-0.44c-0.14-0.04-0.14-0.04-0.7,0.19c0.05-0.44,0.23-0.8,0.58-1.09C6.96,9.83,6.88,9.7,7.01,9.55
						C6.92,9.42,6.85,9.29,6.99,9.15c0.08-0.08-0.01-0.19,0.03-0.23C7.09,8.8,7.17,8.8,7.24,8.76c0.08-0.29,0.1-0.31,0.39-0.26
						c0.09-0.12,0.2-0.2,0.36-0.1c0.03,0.02,0.07,0.05,0.1,0.02c0.18-0.11,0.34,0.1,0.52,0.05c0.05-0.01,0.12,0.04,0.12,0.1
						c0.02,0.11,0.1,0.17,0.15,0.25c0.11,0.15-0.01,0.26-0.14,0.36c0.83,0.19,1.44,0.66,1.95,1.29c0.22,0.28,0.41,0.58,0.58,0.87
						c0.19,0.32,0.43,0.58,0.73,0.78c0.42,0.29,0.9,0.36,1.39,0.31c0.66-0.06,1.32-0.14,1.97-0.25c1.05-0.17,1.89-0.71,2.61-1.46
						c0.17-0.17,0.3-0.36,0.44-0.56c0.21-0.29,0.44-0.54,0.76-0.72c0.14-0.08,0.3-0.13,0.46-0.14c0.25-0.01,0.31,0.04,0.34,0.3
						c0.01,0.03,0.01,0.05,0.02,0.08c0.45-0.01,0.65,0.05,0.6,0.6c0.5,0.28,0.52,0.33,0.23,0.73c0.39,0.65,0.1,0.78-0.38,0.89
						c0.05,0.05,0.1,0.09,0.14,0.12c0.28,0.23,0.31,0.49,0.07,0.76c-0.1,0.12-0.22,0.21-0.34,0.32c0.14,0.23,0.32,0.47,0.2,0.78
						c-0.11,0.28-0.38,0.39-0.62,0.52c0.03,0.36,0.1,0.72-0.34,0.9c-0.04,0.41-0.26,0.64-0.7,0.64c-0.08,0.25-0.1,0.51-0.28,0.71
						c-0.18,0.21-0.42,0.28-0.69,0.29c-0.08,0.2,0.12,0.49-0.22,0.6c0.08,0.21,0.01,0.39-0.13,0.55c-0.17,0.19-0.26,0.44-0.38,0.67
						c-0.21,0.44-0.49,0.83-0.9,1.11c-0.12,0.09-0.26,0.16-0.41,0.21c-0.4,0.15-0.8,0.31-1.21,0.41c-0.34,0.08-0.55,0.26-0.63,0.62
						c-0.06,0.29-0.14,0.57-0.18,0.87c-0.02,0.21,0.01,0.26,0.21,0.34c0.12,0.05,0.25,0.08,0.38,0.14c0.1,0.04,0.2,0.08,0.18,0.23
						c-0.15,0.05-0.28-0.03-0.41-0.06c-0.25-0.06-0.49-0.16-0.76-0.1C13.33,22.58,13.21,22.62,13.11,22.71z M13.21,20.75
						c-0.1,0.19-0.2,0.36-0.28,0.54c-0.1,0.25-0.23,0.5-0.29,0.77c-0.03,0.14-0.01,0.25,0.14,0.28c0.53-0.19,0.89-0.89,0.81-1.61
						C13.48,20.74,13.36,20.75,13.21,20.75z"/>
				</g>
				<g>
					<path class="st2" d="M22.06,23.64c-1.9-0.01-3.36-1.63-3.16-3.53c0.17-1.55,0.72-2.96,1.71-4.17c0.16-0.19,0.34-0.36,0.56-0.5
						c0.61-0.41,1.21-0.41,1.82,0.01c0.55,0.38,0.92,0.91,1.24,1.49c0.56,1.02,0.94,2.11,1.03,3.28
						C25.39,22.1,23.9,23.66,22.06,23.64z"/>
				</g>
			</g>
		</g>
	</g>
</g>
</svg>
