<?xml version="1.0" encoding="utf-8"?>
<!-- Generator: Adobe Illustrator 25.4.1, SVG Export Plug-In . SVG Version: 6.00 Build 0)  -->
<svg version="1.1" xmlns="http://www.w3.org/2000/svg" xmlns:xlink="http://www.w3.org/1999/xlink" x="0px" y="0px"
	 viewBox="0 0 32 32" style="enable-background:new 0 0 32 32;" xml:space="preserve">
<style type="text/css">
	.st0{opacity:0.7;fill:#311C7C;}
	.st1{fill:#311C7C;}
	.st2{fill:#FFFFFF;}
	.st3{clip-path:url(#SVGID_00000016056096717994035620000005528524604909615538_);}
</style>
<g id="Layer_1">
	<g>
		<circle class="st0" cx="16" cy="16" r="15.5"/>
		<path class="st1" d="M16,1c8.27,0,15,6.73,15,15s-6.73,15-15,15S1,24.27,1,16S7.73,1,16,1 M16,0C7.16,0,0,7.16,0,16s7.16,16,16,16
			s16-7.16,16-16S24.84,0,16,0L16,0z"/>
	</g>
</g>
<g id="Layer_2">
	<g>
		<path class="st2" d="M16,4c6.62,0,12,5.38,12,12s-5.38,12-12,12S4,22.62,4,16S9.38,4,16,4 M16,3C8.82,3,3,8.82,3,16s5.82,13,13,13
			s13-5.82,13-13S23.18,3,16,3L16,3z"/>
	</g>
</g>
<g id="Layer_4">
</g>
<g id="Layer_2_copy">
	<g>
		<defs>
			<circle id="SVGID_1_" cx="16" cy="16" r="13"/>
		</defs>
		<clipPath id="SVGID_00000017493048594736123000000014856209200056333483_">
			<use xlink:href="#SVGID_1_"  style="overflow:visible;"/>
		</clipPath>
		<g style="clip-path:url(#SVGID_00000017493048594736123000000014856209200056333483_);">
			<path class="st2" d="M51.67,26.21c0.2,0.59-0.07,0.93-0.33,1.29c-0.75,1.04-1.27,2.2-1.68,3.42c-0.06,0.2-0.14,0.39-0.23,0.59
				c-0.12,0.25-0.31,0.34-0.55,0.14c-0.42-0.36-0.65-0.12-0.84,0.26c-0.06,0.11-0.1,0.22-0.16,0.33c-0.16,0.28-0.12,0.78-0.45,0.83
				c-0.63,0.09-1.3,0.13-1.91-0.14c-0.31-0.14-0.18-0.42-0.06-0.63c0.3-0.52,0.71-0.95,1.11-1.4c0.24-0.27,0.5-0.55,0.73-0.83
				c0.85-1.03,1.28-2.87-0.02-4.32c-0.49-0.54-0.91-1.11-0.98-1.86c-0.04-0.42-0.34-0.4-0.63-0.3c-0.58,0.2-1.14,0.45-1.72,0.66
				c-0.57,0.21-1.15,0.4-1.73,0.59c-1.02,0.32-2.03,0.3-3.03-0.06c-0.74-0.26-1.49-0.36-2.26-0.36c-1.63,0.01-3.25-0.02-4.87,0.03
				c-1.22,0.04-1.73,0.78-2.04,1.95c-0.22,0.85-0.07,1.71,0.04,2.56c0.15,1.23,0.2,2.47,0.22,3.71c0.02,0.71-0.07,0.77-0.77,0.69
				c-0.3-0.03-0.21,0.16-0.22,0.3c-0.05,0.83-0.1,0.88-0.95,0.95c-0.42,0.03-0.83,0.04-1.26,0.05c-0.37,0.01-0.45-0.14-0.26-0.47
				c0.52-0.89,0.93-1.84,1.14-2.85c0.2-0.95-0.25-1.71-0.73-2.43c-0.22-0.34-0.33-0.01-0.38,0.18c-0.23,0.78-0.18,1.6-0.29,2.39
				c-0.02,0.17-0.05,0.34-0.09,0.51c-0.05,0.18-0.22,0.36-0.38,0.3c-0.72-0.3-0.75,0.27-0.77,0.66c-0.02,0.47-0.18,0.55-0.59,0.53
				c-0.42-0.03-0.84-0.02-1.26-0.01c-0.26,0.01-0.3-0.09-0.17-0.3c0.21-0.34,0.41-0.7,0.62-1.03c0.84-1.33,1.17-2.73,0.69-4.29
				c-0.2-0.64-0.25-1.34-0.37-2c-0.05-0.26-0.1-0.51-0.43-0.58c-1.56-0.34-3.05-0.86-4.59-1.25c-1.19-0.3-2.44-0.2-3.66-0.3
				c-0.86-0.07-1.69-0.22-2.49-0.59c-1.68-0.79-3.39-1.51-4.87-2.65c-0.08-0.06-0.18-0.1-0.26-0.17c-0.34-0.25-0.88-0.26-1-0.77
				c-0.18-0.75-0.31-1.51-0.04-2.28c0.11-0.33,0.27-0.51,0.66-0.37c0.51,0.18,1,0.1,1.48-0.11c1.14-0.49,2.12-1.19,2.98-2.09
				c0.38-0.4,0.47-0.83,0.22-1.34c-0.21-0.44-0.37-0.91-0.54-1.36c-0.39-1.03-0.86-2.03-1.52-2.92C10.09,8.95,9.92,8.83,10,8.67
				c0.09-0.15,0.29-0.07,0.43-0.08c0.85-0.02,1.68,0.06,2.42,0.54c0.03,0.02,0.06,0.04,0.1,0.05c0.16,0.04,0.32,0.22,0.48,0.05
				c0.15-0.15,0.02-0.34-0.02-0.49c-0.04-0.17-0.14-0.32-0.2-0.48c-0.06-0.16-0.18-0.32-0.02-0.48c0.15-0.15,0.34-0.07,0.49-0.02
				c0.75,0.3,1.48,0.67,1.99,1.31c0.55,0.71,1.21,0.91,2.03,0.61c1.97-0.71,4-1.12,6.09-1.24c1.22-0.07,2.44-0.19,3.66-0.23
				c2.41-0.07,4.75-0.44,7.09-1.02c1.26-0.31,2.57-0.24,3.84-0.51c3.38-0.7,6.76-0.39,10.11,0.05c2.71,0.36,5.01,1.78,7.13,3.47
				c0.9,0.72,1.38,1.75,1.89,2.74c0.27,0.53,0.47,1.09,1.21,1.24c0.49,0.1,0.59,0.79,0.25,1.34c-0.2,0.32-0.26,0.55,0.15,0.75
				c-0.73,0.14-0.85,0-0.65-0.64c0.06-0.2,0.34-0.47,0-0.63c-0.37-0.17-0.59,0.11-0.71,0.42c-0.15,0.38-0.22,0.77-0.23,1.18
				c-0.06,2.28-0.48,4.48-1.72,6.45c-0.34,0.55-0.33,1.07-0.02,1.63c0.34,0.63,0.69,1.26,1.24,1.73c0.42,0.36,0.57,0.8,0.43,1.36
				c-0.12,0.51-0.18,1.03-0.28,1.55c-0.18,0.96-0.13,1.91,0.15,2.85c0.17,0.56-0.02,0.91-0.59,1.06c-0.34,0.09-0.34,0.32-0.32,0.56
				c0.03,0.48-0.17,0.69-0.64,0.75c-0.5,0.06-0.99,0.23-1.49,0.3c-0.5,0.06-0.63-0.14-0.5-0.62c0.3-1.02,0.82-1.96,1.03-3.02
				c0.11-0.56,0.12-1.11-0.12-1.64c-0.22-0.47-0.47-0.94-0.68-1.41C53.59,27.14,52.74,26.66,51.67,26.21z"/>
		</g>
	</g>
</g>
</svg>
