<?xml version="1.0" encoding="utf-8"?>
<!-- Generator: Adobe Illustrator 25.4.1, SVG Export Plug-In . SVG Version: 6.00 Build 0)  -->
<svg version="1.1" xmlns="http://www.w3.org/2000/svg" xmlns:xlink="http://www.w3.org/1999/xlink" x="0px" y="0px"
	 viewBox="0 0 32 32" style="enable-background:new 0 0 32 32;" xml:space="preserve">
<style type="text/css">
	.st0{opacity:0.7;fill:#25A09A;}
	.st1{fill:#25A09A;}
	.st2{fill:#FFFFFF;}
	.st3{clip-path:url(#SVGID_00000042738524638810046180000012576986222207009160_);fill:#FFFFFF;}
</style>
<g id="Layer_1">
	<g>
		<circle class="st0" cx="16" cy="16" r="15.5"/>
		<path class="st1" d="M16,1c8.27,0,15,6.73,15,15s-6.73,15-15,15S1,24.27,1,16S7.73,1,16,1 M16,0C7.16,0,0,7.16,0,16s7.16,16,16,16
			s16-7.16,16-16S24.84,0,16,0L16,0z"/>
	</g>
</g>
<g id="Layer_2">
	<g>
		<path class="st2" d="M16,4c6.62,0,12,5.38,12,12s-5.38,12-12,12S4,22.62,4,16S9.38,4,16,4 M16,3C8.82,3,3,8.82,3,16s5.82,13,13,13
			s13-5.82,13-13S23.18,3,16,3L16,3z"/>
	</g>
</g>
<g id="Layer_4">
</g>
<g id="Layer_2_copy">
	<g>
		<defs>
			<circle id="SVGID_1_" cx="16" cy="16" r="13"/>
		</defs>
		<clipPath id="SVGID_00000119083487303284233730000015685055399297915317_">
			<use xlink:href="#SVGID_1_"  style="overflow:visible;"/>
		</clipPath>
		<path style="clip-path:url(#SVGID_00000119083487303284233730000015685055399297915317_);fill:#FFFFFF;" d="M10.61,20.37
			c0.12-0.31,0.3-0.49,0.59-0.61c0.51-0.22,0.69-0.71,0.47-1.23c-0.13-0.3-0.3-0.6-0.52-0.84c-0.91-0.97-1.56-2.08-2.1-3.28
			C8.86,14,8.6,13.79,8.14,13.77c-0.36-0.01-0.72-0.04-1.06-0.15c-0.3-0.09-0.58-0.26-0.83-0.43c-0.2-0.14-0.19-0.28-0.01-0.46
			c0.08-0.08,0.18-0.16,0.28-0.22c0.38-0.19,0.65-0.51,0.86-0.86c0.49-0.81,1.33-1.17,2.25-0.99c0.47,0.1,0.92,0.26,1.33,0.54
			c0.28,0.19,0.49,0.44,0.65,0.74c0.22,0.37,0.47,0.7,0.74,1.02c0.24,0.28,0.56,0.38,0.92,0.39c1.29,0.02,2.46-0.38,3.58-0.97
			c1.84-0.97,3.72-1.09,5.63-0.19c0.54,0.26,1.1,0.49,1.49,0.97c0.26,0.31,0.49,0.67,0.66,1.04c0.4,0.84,0.78,1.69,1.14,2.55
			c0.47,1.12,0.51,2.24-0.05,3.36c-0.01,0.02-0.03,0.04-0.04,0.06c-0.9,1.83-2.51,2.48-4.41,2.58c-1.04,0.06-2.07,0.01-3.11,0
			c-0.13,0-0.26-0.08-0.4-0.12c0.08-0.13,0.13-0.31,0.24-0.38c0.26-0.17,0.56-0.31,0.85-0.44c1.09-0.46,2.27-0.56,3.42-0.76
			c0.4-0.08,0.69-0.22,0.93-0.55c0.29-0.42,0.61-0.83,0.9-1.26c0.09-0.13,0.1-0.33,0.1-0.5c0-0.06-0.09-0.14-0.14-0.22
			c-0.06,0.04-0.13,0.08-0.17,0.14c-0.06,0.08-0.1,0.18-0.16,0.27c-0.17,0.25-0.39,0.44-0.69,0.51c-0.56,0.1-1.04,0.39-1.54,0.63
			c-0.11,0.05-0.17,0.22-0.24,0.35c-0.08,0.14-0.13,0.29-0.19,0.44c-0.03-0.01-0.05-0.01-0.08-0.02c0-0.13,0-0.25,0-0.41
			c-0.09,0.03-0.15,0.05-0.19,0.09c-0.39,0.31-0.38,0.31-0.79,0.1c0.12-0.72,0.67-0.97,1.26-1.18c0.11-0.03,0.19-0.15,0.3-0.23
			c-0.09-0.09-0.16-0.2-0.26-0.27c-0.3-0.19-0.61-0.38-0.93-0.55c-0.15-0.08-0.31-0.16-0.47-0.18c-0.61-0.09-1.24-0.22-1.86-0.23
			c-0.97-0.02-1.94,0.04-2.9,0.06c-0.31,0.01-0.45,0.17-0.59,0.44c-0.31,0.58-0.65,1.15-1.02,1.7c-0.14,0.22-0.41,0.33-0.6,0.51
			c-0.22,0.22-0.42,0.44-0.63,0.66c-0.09,0.1-0.19,0.22-0.27,0.03c-0.09-0.19-0.17-0.13-0.31-0.09c-0.17,0.05-0.36,0.08-0.54,0.06
			c-0.17-0.01-0.23-0.15-0.13-0.29c0.1-0.15,0.25-0.28,0.35-0.44c0.05-0.09,0.05-0.22,0.08-0.32c-0.1-0.01-0.19-0.05-0.29-0.04
			C10.98,20.28,10.81,20.33,10.61,20.37z"/>
	</g>
</g>
</svg>
