<?xml version="1.0" encoding="utf-8"?>
<!-- Generator: Adobe Illustrator 25.4.1, SVG Export Plug-In . SVG Version: 6.00 Build 0)  -->
<svg version="1.1" xmlns="http://www.w3.org/2000/svg" xmlns:xlink="http://www.w3.org/1999/xlink" x="0px" y="0px"
	 viewBox="0 0 32 32" style="enable-background:new 0 0 32 32;" xml:space="preserve">
<style type="text/css">
	.st0{opacity:0.7;fill:#311C7C;}
	.st1{fill:#311C7C;}
	.st2{fill:#FFFFFF;}
	.st3{clip-path:url(#SVGID_00000165193668992673481910000012768574373421975451_);}
</style>
<g id="Layer_1">
	<g>
		<circle class="st0" cx="16" cy="16" r="15.5"/>
		<path class="st1" d="M16,1c8.27,0,15,6.73,15,15s-6.73,15-15,15S1,24.27,1,16S7.73,1,16,1 M16,0C7.16,0,0,7.16,0,16s7.16,16,16,16
			s16-7.16,16-16S24.84,0,16,0L16,0z"/>
	</g>
</g>
<g id="Layer_2">
	<g>
		<path class="st2" d="M16,4c6.62,0,12,5.38,12,12s-5.38,12-12,12S4,22.62,4,16S9.38,4,16,4 M16,3C8.82,3,3,8.82,3,16s5.82,13,13,13
			s13-5.82,13-13S23.18,3,16,3L16,3z"/>
	</g>
</g>
<g id="Layer_4">
</g>
<g id="Layer_2_copy">
	<g>
		<defs>
			<circle id="SVGID_1_" cx="16" cy="16" r="13"/>
		</defs>
		<clipPath id="SVGID_00000144305670963514423060000017661005244859185281_">
			<use xlink:href="#SVGID_1_"  style="overflow:visible;"/>
		</clipPath>
		<g style="clip-path:url(#SVGID_00000144305670963514423060000017661005244859185281_);">
			<g>
				<path class="st2" d="M31.6,16.71c0.11,0.33-0.04,0.51-0.18,0.71c-0.41,0.57-0.69,1.21-0.92,1.87c-0.04,0.11-0.07,0.22-0.13,0.32
					c-0.06,0.14-0.17,0.18-0.3,0.07c-0.24-0.2-0.35-0.06-0.46,0.14c-0.03,0.06-0.05,0.13-0.09,0.18c-0.09,0.15-0.06,0.43-0.25,0.45
					c-0.35,0.05-0.71,0.07-1.05-0.08c-0.17-0.07-0.1-0.23-0.03-0.35c0.16-0.28,0.39-0.52,0.61-0.76c0.13-0.15,0.27-0.3,0.4-0.45
					c0.46-0.56,0.7-1.57-0.01-2.36c-0.26-0.29-0.5-0.61-0.54-1.02c-0.02-0.23-0.18-0.22-0.35-0.16c-0.32,0.11-0.63,0.25-0.94,0.36
					c-0.31,0.12-0.64,0.22-0.95,0.32c-0.55,0.17-1.11,0.16-1.66-0.03c-0.4-0.14-0.82-0.2-1.24-0.2c-0.89,0-1.78-0.01-2.67,0.02
					c-0.66,0.02-0.95,0.43-1.12,1.06c-0.12,0.46-0.04,0.94,0.02,1.4c0.08,0.67,0.11,1.35,0.13,2.04c0.01,0.38-0.04,0.42-0.42,0.38
					c-0.16-0.02-0.12,0.09-0.12,0.16c-0.03,0.45-0.05,0.48-0.52,0.52c-0.23,0.02-0.45,0.02-0.69,0.03c-0.2,0-0.25-0.08-0.14-0.25
					c0.28-0.49,0.51-1.01,0.63-1.56c0.11-0.52-0.14-0.94-0.4-1.33c-0.12-0.18-0.18,0-0.21,0.1c-0.13,0.43-0.1,0.87-0.15,1.31
					c-0.01,0.09-0.03,0.19-0.05,0.28c-0.03,0.1-0.12,0.2-0.21,0.16c-0.39-0.16-0.41,0.15-0.42,0.36c-0.01,0.25-0.1,0.3-0.33,0.29
					c-0.23-0.02-0.46-0.01-0.69,0c-0.15,0-0.16-0.05-0.09-0.16c0.12-0.19,0.23-0.38,0.34-0.56c0.46-0.73,0.64-1.49,0.38-2.35
					c-0.11-0.35-0.14-0.74-0.2-1.1c-0.03-0.15-0.05-0.27-0.24-0.32c-0.85-0.18-1.67-0.47-2.51-0.68c-0.65-0.16-1.34-0.11-2-0.16
					c-0.47-0.04-0.93-0.12-1.36-0.32c-0.92-0.43-1.85-0.83-2.66-1.45c-0.05-0.04-0.1-0.05-0.15-0.09c-0.19-0.14-0.48-0.15-0.55-0.42
					c-0.1-0.41-0.17-0.83-0.02-1.25c0.06-0.18,0.15-0.28,0.36-0.2c0.27,0.1,0.55,0.05,0.81-0.06c0.63-0.26,1.16-0.65,1.64-1.15
					c0.21-0.22,0.25-0.45,0.13-0.74c-0.12-0.25-0.2-0.5-0.29-0.75C9.55,8.38,9.3,7.83,8.94,7.34c-0.05-0.06-0.15-0.13-0.1-0.22
					c0.05-0.08,0.15-0.04,0.24-0.05c0.46-0.01,0.92,0.03,1.33,0.29c0.02,0.01,0.04,0.02,0.05,0.03c0.09,0.02,0.17,0.12,0.26,0.03
					c0.08-0.08,0.01-0.18-0.01-0.26c-0.02-0.09-0.07-0.17-0.11-0.26c-0.03-0.09-0.1-0.17-0.01-0.26c0.08-0.08,0.18-0.04,0.26-0.01
					c0.41,0.16,0.81,0.36,1.09,0.72c0.3,0.38,0.66,0.5,1.11,0.34c1.08-0.39,2.19-0.62,3.34-0.68c0.66-0.04,1.34-0.11,2.01-0.13
					c1.32-0.04,2.6-0.25,3.88-0.55c0.69-0.17,1.41-0.13,2.1-0.27c1.85-0.38,3.7-0.22,5.54,0.03c1.48,0.2,2.75,0.97,3.9,1.9
					c0.49,0.39,0.75,0.95,1.04,1.5c0.15,0.29,0.25,0.6,0.66,0.68c0.26,0.05,0.33,0.43,0.14,0.74c-0.11,0.17-0.14,0.3,0.08,0.41
					c-0.4,0.07-0.46,0-0.35-0.35c0.04-0.11,0.19-0.25,0-0.35c-0.2-0.09-0.32,0.06-0.39,0.24c-0.08,0.21-0.13,0.42-0.13,0.65
					c-0.04,1.25-0.26,2.45-0.94,3.54c-0.18,0.3-0.18,0.59-0.01,0.89c0.19,0.35,0.38,0.69,0.68,0.95c0.24,0.2,0.31,0.44,0.24,0.75
					c-0.06,0.27-0.1,0.56-0.15,0.85c-0.1,0.53-0.07,1.05,0.08,1.55c0.09,0.31-0.01,0.5-0.33,0.58c-0.19,0.05-0.18,0.17-0.17,0.31
					c0.02,0.26-0.09,0.38-0.35,0.41c-0.27,0.04-0.54,0.13-0.82,0.16c-0.27,0.04-0.35-0.07-0.27-0.34c0.16-0.55,0.45-1.07,0.56-1.65
					c0.06-0.31,0.06-0.61-0.06-0.9c-0.13-0.25-0.25-0.51-0.37-0.77C32.65,17.22,32.19,16.96,31.6,16.71z"/>
			</g>
			<g>
				<path class="st2" d="M29.49,34.07h-1.45v-2.1h1.41L29.49,34.07z M27.33,34.07h-1.41v-2.1h1.41V34.07z M25.23,34.07h-1.41v-2.1
					h1.41V34.07z M23.12,34.07h-1.41v-2.1h1.41V34.07z M21.01,34.07H19.6v-2.1h1.41V34.07z M18.9,34.07h-1.41v-2.1h1.41V34.07z
					 M16.79,34.07h-1.41v-2.1h1.41V34.07z M14.69,34.07h-1.36l-0.05-2.1h1.41V34.07z M12.44,34c-0.55-0.08-1.1-0.23-1.62-0.45
					l0.83-1.93c0.35,0.15,0.71,0.25,1.08,0.3L12.44,34z M30.33,34l-0.3-2.08c0.37-0.05,0.74-0.15,1.08-0.3l0.84,1.93
					C31.43,33.78,30.89,33.92,30.33,34z M10.06,33.17c-0.48-0.29-0.92-0.65-1.31-1.05l1.52-1.45c0.26,0.27,0.55,0.51,0.87,0.7
					L10.06,33.17z M32.7,33.17l-1.09-1.8c0.32-0.19,0.62-0.43,0.87-0.7L34,32.12C33.62,32.52,33.18,32.88,32.7,33.17z M8.22,31.48
					c-0.34-0.45-0.6-0.95-0.8-1.47l1.96-0.75c0.14,0.35,0.32,0.68,0.54,0.98L8.22,31.48z M34.55,31.47l-1.7-1.24
					c0.22-0.3,0.4-0.64,0.54-0.99l1.96,0.75C35.15,30.51,34.88,31.01,34.55,31.47z M7.16,29.19C7.05,28.72,7,28.23,7,27.75
					c0-0.07,0-0.15,0-0.22l2.1,0.07v0.15c0,0.33,0.04,0.65,0.11,0.97L7.16,29.19z M35.6,29.18l-2.05-0.47
					c0.07-0.32,0.11-0.64,0.11-0.96v-0.15l2.1-0.07c0,0.07,0,0.15,0,0.23C35.76,28.23,35.71,28.71,35.6,29.18z M9.16,27.03
					l-2.07-0.35c0.09-0.55,0.26-1.1,0.5-1.61l1.91,0.88C9.34,26.3,9.22,26.67,9.16,27.03z M33.6,27.03
					c-0.06-0.37-0.17-0.73-0.34-1.07l1.91-0.89c0.24,0.51,0.41,1.05,0.5,1.6L33.6,27.03z M9.76,25.48l-1.77-1.13
					c0.3-0.47,0.66-0.9,1.08-1.28l1.41,1.55C10.21,24.87,9.96,25.16,9.76,25.48z M33,25.47c-0.2-0.32-0.45-0.6-0.73-0.85l1.41-1.55
					c0.42,0.38,0.78,0.81,1.08,1.28L33,25.47z M10.93,24.27l-1.19-1.73c0.46-0.32,0.96-0.57,1.5-0.76l0.7,1.98
					C11.57,23.88,11.24,24.05,10.93,24.27z M31.83,24.27c-0.31-0.21-0.65-0.38-1-0.51l0.69-1.98c0.53,0.18,1.04,0.45,1.5,0.76
					L31.83,24.27z M12.46,23.6l-0.43-2.05c0.42-0.09,0.85-0.14,1.28-0.13h0.33v2.1h-0.33l0,0C13.04,23.52,12.74,23.55,12.46,23.6z
					 M30.29,23.6c-0.28-0.05-0.56-0.08-0.85-0.08H29.1v-2.1h0.34c0.43,0,0.86,0.05,1.27,0.13L30.29,23.6z M28.4,23.52h-1.41v-2.1
					h1.41V23.52z M26.3,23.52h-1.41v-2.1h1.41V23.52z M24.19,23.52h-1.41v-2.1h1.41V23.52z M22.08,23.52h-1.41v-2.1h1.41V23.52z
					 M19.97,23.52h-1.41v-2.1h1.41V23.52z M17.86,23.52h-1.41v-2.1h1.41V23.52z M15.75,23.52h-1.4v-2.1h1.41L15.75,23.52
					L15.75,23.52z"/>
			</g>
			<circle class="st2" cx="13.33" cy="27.74" r="3.5"/>
		</g>
	</g>
</g>
</svg>
