<?xml version="1.0" encoding="utf-8"?>
<!-- Generator: Adobe Illustrator 25.4.1, SVG Export Plug-In . SVG Version: 6.00 Build 0)  -->
<svg version="1.1" xmlns="http://www.w3.org/2000/svg" xmlns:xlink="http://www.w3.org/1999/xlink" x="0px" y="0px"
	 viewBox="0 0 32 32" style="enable-background:new 0 0 32 32;" xml:space="preserve">
<style type="text/css">
	.st0{opacity:0.7;fill:#881640;}
	.st1{fill:#881640;}
	.st2{fill:#FFFFFF;}
	.st3{clip-path:url(#SVGID_00000105420886455282982130000006072229137096009394_);}
</style>
<g id="Layer_1">
	<g>
		<circle class="st0" cx="16" cy="16" r="15.5"/>
		<path class="st1" d="M16,1c8.27,0,15,6.73,15,15s-6.73,15-15,15S1,24.27,1,16S7.73,1,16,1 M16,0C7.16,0,0,7.16,0,16s7.16,16,16,16
			s16-7.16,16-16S24.84,0,16,0L16,0z"/>
	</g>
</g>
<g id="Layer_2">
	<g>
		<path class="st2" d="M16,4c6.62,0,12,5.38,12,12s-5.38,12-12,12S4,22.62,4,16S9.38,4,16,4 M16,3C8.82,3,3,8.82,3,16s5.82,13,13,13
			s13-5.82,13-13S23.18,3,16,3L16,3z"/>
	</g>
</g>
<g id="Layer_4">
</g>
<g id="Layer_2_copy">
	<g>
		<defs>
			<circle id="SVGID_1_" cx="16" cy="16" r="13"/>
		</defs>
		<clipPath id="SVGID_00000143576187789390715430000016595538630153356420_">
			<use xlink:href="#SVGID_1_"  style="overflow:visible;"/>
		</clipPath>
		<g style="clip-path:url(#SVGID_00000143576187789390715430000016595538630153356420_);">
			<path class="st2" d="M27.19,46.3c0.3,0.41,0.77,0.64,1.01,1.1c-0.42,0.24-0.78,0.08-1.07-0.13c-1.29-1.01-2.62-0.83-3.98-0.18
				c-0.72,0.35-1.45,0.67-2.2,0.97c-0.24,0.1-0.45,0.29-0.8,0.2c0.35-0.52,0.92-0.72,1.37-1.18c-0.93-0.13-1.79,0.14-2.75,0.02
				c0.35-0.41,0.73-0.49,1.11-0.56c1.1-0.22,2.16-0.54,3.19-1.01c0.88-0.4,1.47-0.99,1.72-1.96c0.24-0.94,0.59-1.87,0.91-2.86
				c-1.67-0.16-2.63-1.18-3.38-2.49c-0.53-0.94-1.12-1.84-2.02-2.51c-0.56-0.43-1.21-0.69-1.87-0.89c-2.11-0.65-3.68-1.98-4.93-3.77
				c-1.37-1.98-2.2-4.19-2.74-6.52c-0.16-0.72-0.32-1.47-0.43-2.2c-0.22-1.48-0.01-2.92,0.51-4.32c0.26-0.67,0.52-1.34,0.69-2.04
				c0.05-0.24,0.1-0.46,0.09-0.58c-0.05-0.2-0.09-0.21-0.16-0.19c-0.89,0.27-1.26-0.03-1.15-0.96c0.05-0.42,0.19-0.82,0.29-1.24
				c-0.38-0.11-0.38-0.11-1.98,0.52c0.14-1.23,0.64-2.25,1.63-3.07c-0.32-0.33-0.56-0.67-0.18-1.1c-0.26-0.37-0.46-0.73-0.05-1.13
				c0.21-0.21-0.01-0.53,0.08-0.65c0.2-0.31,0.43-0.33,0.62-0.42c0.22-0.82,0.29-0.86,1.1-0.75c0.26-0.33,0.56-0.56,1.01-0.27
				c0.09,0.06,0.19,0.13,0.29,0.06c0.51-0.31,0.94,0.27,1.44,0.14c0.14-0.03,0.33,0.13,0.35,0.27c0.05,0.31,0.27,0.49,0.43,0.72
				c0.31,0.42-0.01,0.73-0.38,1.01c2.33,0.54,4.05,1.87,5.47,3.62c0.62,0.78,1.13,1.62,1.63,2.46c0.52,0.89,1.21,1.62,2.05,2.2
				c1.18,0.82,2.54,1,3.91,0.86c1.85-0.18,3.7-0.38,5.55-0.7c2.95-0.49,5.31-1.98,7.32-4.11c0.45-0.49,0.85-1.02,1.24-1.58
				c0.58-0.81,1.24-1.53,2.12-2.03c0.4-0.24,0.83-0.37,1.29-0.38c0.71-0.03,0.86,0.11,0.94,0.84c0.01,0.08,0.03,0.14,0.05,0.22
				c1.26-0.03,1.82,0.13,1.69,1.69c1.42,0.8,1.45,0.93,0.67,2.04c1.09,1.84,0.29,2.19-1.07,2.52c0.14,0.13,0.27,0.24,0.38,0.35
				c0.78,0.65,0.86,1.37,0.2,2.14c-0.27,0.32-0.62,0.59-0.96,0.91c0.4,0.67,0.89,1.34,0.56,2.19c-0.31,0.78-1.07,1.09-1.73,1.47
				c0.1,1,0.27,2.03-0.96,2.54c-0.13,1.15-0.75,1.8-1.96,1.8c-0.24,0.69-0.3,1.43-0.78,1.98c-0.51,0.59-1.18,0.78-1.94,0.81
				c-0.22,0.56,0.35,1.36-0.61,1.69c0.22,0.6,0.05,1.09-0.37,1.55c-0.49,0.54-0.75,1.23-1.05,1.87c-0.6,1.24-1.36,2.34-2.54,3.13
				c-0.35,0.24-0.73,0.45-1.13,0.6c-1.12,0.42-2.24,0.88-3.4,1.15c-0.96,0.24-1.55,0.73-1.75,1.73c-0.16,0.81-0.41,1.6-0.5,2.43
				c-0.06,0.6,0.01,0.73,0.59,0.96c0.35,0.13,0.71,0.24,1.05,0.38c0.27,0.11,0.56,0.24,0.5,0.64c-0.43,0.14-0.78-0.09-1.16-0.18
				c-0.7-0.16-1.37-0.45-2.12-0.27C27.81,45.93,27.49,46.01,27.19,46.3z M27.49,40.78c-0.27,0.52-0.56,1.01-0.78,1.52
				c-0.3,0.71-0.64,1.4-0.81,2.16c-0.09,0.38-0.01,0.69,0.41,0.8c1.48-0.54,2.49-2.49,2.27-4.53
				C28.25,40.75,27.91,40.76,27.49,40.78z"/>
		</g>
	</g>
</g>
</svg>
